<?xml version="1.0" standalone="no"?>
<!DOCTYPE svg PUBLIC "-//W3C//DTD SVG 1.1//EN" "http://www.w3.org/Graphics/SVG/1.1/DTD/svg11.dtd" >
<svg xmlns="http://www.w3.org/2000/svg">
<metadata></metadata>
<defs>
<font id="glosaroman" horiz-adv-x="1146" >
<font-face units-per-em="2048" ascent="1536" descent="-512" />
<missing-glyph horiz-adv-x="471" />
<glyph unicode="&#xfb01;" horiz-adv-x="1249" d="M61 0v61l185 11v870h-164v72l164 10v41q0 194 130 312t320 118q92 0 165 -22t116 -57.5t65.5 -75.5t22.5 -80q0 -49 -29.5 -81t-72.5 -32q-58 0 -88 40t-19.5 87t55.5 67v21q-72 72 -215 72q-150 0 -218 -92.5t-68 -276.5v-41h184v-82h-184v-870l184 -11v-61h-533zM696 0 v61l185 11v747l-164 82v41l287 102h40v-972l185 -11v-61h-533z" />
<glyph unicode="&#xfb02;" horiz-adv-x="1249" d="M61 0v61l185 11v870h-164v72l164 10v41q0 194 130 312t320 118q120 0 205 -37l103 37h40v-1423l185 -11v-61h-533v61l185 11v1177q0 51 -19 89t-48.5 57.5t-59.5 29t-58 9.5q-150 0 -218 -92.5t-68 -276.5v-41h184v-82h-184v-870l184 -11v-61h-533z" />
<glyph unicode="&#xfb03;" horiz-adv-x="1884" d="M61 0v61l185 11v870h-164v72l164 10v61q0 174 100 292t238 118q66 0 99.5 -28.5t33.5 -73.5q0 -59 -48.5 -86.5t-97.5 1.5t-49 105h-20q-17 0 -30.5 -6.5t-23 -21.5t-16 -29.5t-11 -42t-7 -46.5t-3.5 -55t-1 -56.5v-60.5v-10v-61h471v41q0 194 130 312t320 118 q92 0 165 -22t116 -57.5t65.5 -75.5t22.5 -80q0 -49 -30 -81t-73 -32q-58 0 -87.5 40t-19 87t55.5 67v21q-72 72 -215 72q-150 0 -218.5 -93t-68.5 -276v-41h185v-82h-185v-870l185 -11v-61h-533v61l185 11v870h-471v-870l184 -11v-61h-533zM1331 0v61l185 11v747l-164 82 v41l286 102h41v-972l185 -11v-61h-533z" />
<glyph unicode="&#xfb04;" horiz-adv-x="1884" d="M61 0v61l185 11v870h-164v72l164 10v61q0 174 100 292t238 118q66 0 99.5 -28.5t33.5 -73.5q0 -59 -48.5 -86.5t-97.5 1.5t-49 105h-20q-17 0 -30.5 -6.5t-23 -21.5t-16 -29.5t-11 -42t-7 -46.5t-3.5 -55t-1 -56.5v-60.5v-10v-61h471v41q0 194 130 312t320 118 q120 0 205 -37l102 37h41v-1423l185 -11v-61h-533v61l185 11v1177q0 51 -19 89t-48.5 57.5t-59.5 29t-58 9.5q-150 0 -218.5 -93t-68.5 -276v-41h185v-82h-185v-870l185 -11v-61h-533v61l185 11v870h-471v-870l184 -11v-61h-533z" />
<glyph horiz-adv-x="0" />
<glyph horiz-adv-x="682" />
<glyph unicode=" "  horiz-adv-x="471" />
<glyph unicode="&#x09;" horiz-adv-x="471" />
<glyph unicode="&#xa0;" horiz-adv-x="471" />
<glyph unicode="!" horiz-adv-x="655" d="M205 102q0 51 36 87t87 36t87 -36t36 -87t-36 -86.5t-87 -35.5t-87 35.5t-36 86.5zM217 1434h217l-74 -1024h-61z" />
<glyph unicode="&#x22;" horiz-adv-x="851" d="M205 1556h135l-41 -399h-53zM512 1556h135l-41 -399h-53z" />
<glyph unicode="#" d="M82 348v72h291v256h-291v72h291v292h71v-292h256v292h72v-292h293v-72h-293v-256h293v-72h-293v-291h-72v291h-256v-291h-71v291h-291zM444 420h256v256h-256v-256z" />
<glyph unicode="$" d="M123 246q0 49 29.5 80.5t72.5 31.5q58 0 87.5 -40t19 -87t-55.5 -67v-21q30 -37 104 -64.5t173 -27.5v608q-89 36 -155 74t-124.5 90t-89 119t-30.5 148q0 147 104 248t295 114v186h72v-184q180 -6 277 -88.5t97 -177.5q0 -49 -29.5 -81t-72.5 -32q-58 0 -87.5 40 t-19 87.5t55.5 67.5v20q-28 34 -85.5 60t-135.5 30v-553q399 -161 399 -438q0 -163 -109.5 -271t-289.5 -132v-191h-72v185q-94 0 -170 18t-123.5 46t-79.5 64.5t-44.5 70.5t-12.5 67zM328 1147q0 -102 60 -170.5t165 -118.5v522q-110 -9 -167.5 -68t-57.5 -165zM625 59 q106 22 165.5 97.5t59.5 183.5q0 100 -60.5 168t-164.5 119v-568z" />
<glyph unicode="%" horiz-adv-x="2007" d="M207 1137q2 134 87.5 225.5t215.5 91.5q125 0 207.5 -92t79.5 -225q-3 -135 -88.5 -226.5t-216.5 -91.5q-124 0 -206 92.5t-79 225.5zM317 1137q0 -137 49 -211t136 -74t135.5 74t48.5 211t-48.5 210.5t-135.5 73.5t-136 -73.5t-49 -210.5zM674 0l588 1434h79l-585 -1434 h-82zM1210 297q2 134 87.5 225.5t215.5 91.5q125 0 207.5 -92t79.5 -225q-3 -134 -88.5 -225.5t-216.5 -91.5q-124 0 -206 92t-79 225zM1321 297q0 -137 48.5 -211t135.5 -74t136 74t49 211t-49 211t-136 74t-135.5 -74t-48.5 -211z" />
<glyph unicode="&#x26;" horiz-adv-x="1617" d="M164 362q0 44 7.5 82.5t18.5 69t34.5 61.5t43.5 52.5t58 52t64.5 49.5t76.5 53q-96 128 -134 200.5t-38 160.5q0 140 104 225.5t248 85.5q137 0 224 -76.5t87 -203.5q0 -194 -307 -351l389 -471q33 50 56.5 90.5t58 129.5t53.5 186l-204 10v61h450v-61l-164 -10 q-63 -249 -207 -457l207 -229l99 -11v-61h-273l-145 164q-184 -184 -408 -184q-180 0 -289.5 102t-109.5 280zM342 420q0 -138 83.5 -238t209.5 -100q57 0 135.5 29.5t157.5 103.5l-426 522q-160 -115 -160 -317zM467 1180q0 -66 34.5 -136t114.5 -176q133 79 183.5 148 t50.5 151q0 88 -47.5 151.5t-147.5 63.5q-51 0 -89 -18.5t-59 -49t-30.5 -64.5t-9.5 -70z" />
<glyph unicode="'" horiz-adv-x="544" d="M205 1556h135l-41 -399h-53z" />
<glyph unicode="(" horiz-adv-x="768" d="M205 604q0 683 420 1147h41q-137 -238 -202 -543t-65 -604t65 -604t202 -543h-41q-420 464 -420 1147z" />
<glyph unicode=")" horiz-adv-x="768" d="M102 -543q137 238 202 543t65 604t-65 604t-202 543h41q420 -464 420 -1147t-420 -1147h-41z" />
<glyph unicode="*" horiz-adv-x="905" d="M164 1163q0 22 13.5 36.5t35.5 14.5q7 0 21.5 -3.5t56.5 -10.5t104 -14q-49 39 -84.5 65t-46.5 34t-16 13q-15 15 -15 35t15 35q14 15 34 16t35 -14q4 -5 12.5 -18.5t33.5 -48t65 -84.5q-7 65 -13.5 108t-9 57t-2.5 21q0 22 14 35.5t36 13.5t36.5 -13t14.5 -36 q0 -8 -2.5 -22.5t-9.5 -58.5t-15 -105q39 49 63.5 84t33 48t14.5 19q15 15 34.5 15t34.5 -15q16 -16 16.5 -35t-16.5 -37q-5 -6 -16.5 -13.5t-47.5 -33.5t-87 -67q64 7 105.5 14.5t56 11.5t22.5 4q22 0 36.5 -14.5t14.5 -36.5t-14.5 -35.5t-36.5 -13.5q-7 0 -21.5 2.5t-57 9 t-103.5 13.5q49 -39 82.5 -63t46.5 -32t18 -12q15 -15 15 -36.5t-15 -34.5q-15 -15 -35.5 -15t-35.5 15q-5 5 -11 13l-15 20t-31 41.5t-50 66.5q6 -60 13 -99.5t10.5 -54t3.5 -20.5q0 -22 -14.5 -36.5t-36.5 -14.5t-36 14.5t-14 36.5q0 7 2.5 20.5t9 55.5t13.5 104 q-39 -50 -63.5 -84.5t-31.5 -46.5t-11 -16q-15 -15 -37 -15t-37 15t-14 35.5t16 35.5q4 4 15 11.5t44.5 32.5t81.5 63q-48 -5 -85 -10.5t-52 -8t-25 -4.5t-16 -2q-22 0 -35.5 13.5t-13.5 35.5z" />
<glyph unicode="+" d="M205 512v72h332v334h71v-334h334v-72h-334v-332h-71v332h-332z" />
<glyph unicode="," horiz-adv-x="686" d="M205 41v205q64 9 114.5 -2t80 -33t48.5 -53.5t26 -60t7 -56.5q0 -128 -81.5 -229t-174.5 -140l-20 41q46 28 82.5 70t52.5 86t12 83t-41.5 64t-105.5 25z" />
<glyph unicode="-" d="M205 512v72h737v-72h-737z" />
<glyph unicode="." horiz-adv-x="655" d="M205 102q0 51 36 87t87 36t87 -36t36 -87t-36 -86.5t-87 -35.5t-87 35.5t-36 86.5z" />
<glyph unicode="/" horiz-adv-x="983" d="M242 0l420 1454h79l-417 -1454h-82z" />
<glyph unicode="0" horiz-adv-x="1228" d="M123 717q0 108 17 210.5t56 199t94.5 168.5t139 115.5t184.5 43.5t184.5 -43.5t139.5 -115.5t94.5 -168.5t56 -199t17.5 -210.5t-17.5 -210.5t-56 -199t-94.5 -168.5t-139.5 -115.5t-184.5 -43.5t-184.5 43.5t-139 115.5t-94.5 168.5t-56 199t-17 210.5zM307 717 q0 -105 8 -196t29.5 -179.5t55 -151t88.5 -101t126 -38.5q60 0 108 26t81 74t57 109.5t37 138.5t19 154t6 164t-6 164t-19 154t-37 138t-57 109t-81 74t-108 26t-108 -26t-81 -74t-56.5 -109t-36.5 -138t-19 -154t-6 -164z" />
<glyph unicode="1" horiz-adv-x="860" d="M82 0v61l266 11v1228l-266 -30v61l389 123h41v-1382l266 -11v-61h-696z" />
<glyph unicode="2" horiz-adv-x="1044" d="M102 0v82q176 129 305.5 256t198.5 224t110 194.5t51.5 159.5t10.5 128q0 154 -71.5 246t-194.5 92q-135 0 -236 -82v-20q45 -20 55.5 -67.5t-19 -87.5t-87.5 -40q-43 0 -72.5 30t-29.5 73t27.5 88.5t78 86t133 66t181.5 25.5q83 0 152.5 -25t116 -66t79 -94.5t47 -109.5 t14.5 -112q0 -59 -11 -118t-51 -151t-107.5 -183.5t-192.5 -208.5t-293 -232v-21l666 10v-143h-861z" />
<glyph unicode="3" horiz-adv-x="1095" d="M82 246q0 43 29.5 72.5t72.5 29.5q58 0 88 -40t19.5 -87t-55.5 -67v-21q31 -23 58.5 -38.5t80.5 -29.5t117 -14q146 0 224.5 95t78.5 260q0 147 -76 233t-234 86h-73v78h53q132 0 204 80t72 194q0 110 -65.5 184t-183.5 74q-96 0 -182 -60.5t-126 -146.5h-41 q32 134 145 230t255 96q166 0 271.5 -89.5t105.5 -234.5q0 -126 -74.5 -217.5t-206.5 -136.5v-10q146 -18 240 -114t94 -259q0 -101 -40.5 -181.5t-110 -130t-156.5 -75.5t-185 -26q-163 0 -281 82t-118 184z" />
<glyph unicode="4" horiz-adv-x="1167" d="M82 328v155l682 930l117 41v-1003h204v-123h-204v-328h-164v328h-635zM184 451h533v757h-21l-512 -737v-20z" />
<glyph unicode="5" horiz-adv-x="1095" d="M82 246q0 43 29.5 72.5t72.5 29.5q58 0 88 -40t19.5 -87t-55.5 -67v-21q31 -23 58.5 -38.5t80.5 -29.5t117 -14q147 0 227 101.5t80 257.5q0 52 -7.5 95.5t-25.5 87.5t-52.5 77.5t-84 60.5t-123.5 41t-168 14h-113l21 648h676v-156h-600l-13 -401q109 16 197.5 7.5 t157.5 -31t120.5 -61t87.5 -82t58.5 -94.5t32.5 -98.5t10 -93.5q0 -197 -132.5 -320.5t-359.5 -123.5q-163 0 -281 82t-118 184z" />
<glyph unicode="6" horiz-adv-x="1157" d="M123 547q0 344 198.5 593t524.5 314l14 -63q-128 -39 -226 -102.5t-162.5 -148t-103.5 -177.5t-61 -205l17 -6q155 129 333 129q161 0 269 -124.5t108 -303.5q0 -211 -131 -342t-321 -131q-90 0 -166 29.5t-129.5 81.5t-90.5 123.5t-55 155.5t-18 177zM307 659 q-20 -166 8.5 -304.5t99 -219t169.5 -80.5q121 0 193.5 98t72.5 277q0 161 -76.5 261t-200.5 100q-72 0 -142.5 -36t-123.5 -96z" />
<glyph unicode="7" horiz-adv-x="1003" d="M82 1106l10 328h850v-41l-516 -1393h-205l608 1280v20l-645 -20l-30 -174h-72z" />
<glyph unicode="8" horiz-adv-x="1157" d="M123 375q0 103 81.5 196.5t221.5 159.5q-252 152 -252 346q0 87 38 160t99.5 119.5t137 72t153.5 25.5q104 0 192 -40.5t143.5 -123t55.5 -190.5q0 -100 -70.5 -192.5t-191.5 -145.5q164 -80 233.5 -163.5t69.5 -205.5q0 -98 -40 -178t-107.5 -130.5t-151 -77.5 t-174.5 -27q-121 0 -218.5 43t-158.5 134.5t-61 217.5zM287 391q0 -157 79.5 -245.5t219.5 -88.5q134 0 209 77.5t75 203.5q0 211 -383 364q-105 -61 -152.5 -135.5t-47.5 -175.5zM338 1128q0 -60 22.5 -108t71 -88t104 -70t140.5 -67q164 87 164 315q0 122 -71.5 194 t-182.5 72q-110 0 -179 -68t-69 -180z" />
<glyph unicode="9" horiz-adv-x="1157" d="M123 981q0 211 131 342t321 131q90 0 166 -29.5t129.5 -81.5t90.5 -123.5t55 -155.5t18 -177q0 -344 -198.5 -593t-524.5 -314l-14 63q128 39 226 102.5t162.5 148t103.5 177.5t61 205l-16 6q-155 -129 -334 -129q-161 0 -269 124.5t-108 303.5zM307 1004 q0 -161 76.5 -261t200.5 -100q73 0 143 36t123 95q20 166 -8.5 304.5t-99 219t-169.5 80.5q-121 0 -193.5 -97.5t-72.5 -276.5z" />
<glyph unicode=":" horiz-adv-x="655" d="M205 225q0 51 36 87t87 36t87 -36t36 -87t-36 -87t-87 -36t-87 36t-36 87zM205 799q0 51 36 87t87 36t87 -36t36 -87t-36 -87t-87 -36t-87 36t-36 87z" />
<glyph unicode=";" horiz-adv-x="686" d="M205 41v205q64 9 114.5 -2t80 -33t48.5 -53.5t26 -60t7 -56.5q0 -128 -81.5 -229t-174.5 -140l-20 41q46 28 82.5 70t52.5 86t12 83t-41.5 64t-105.5 25zM215 799q0 51 36 87t87 36t87 -36t36 -87t-36 -87t-87 -36t-87 36t-36 87z" />
<glyph unicode="&#x3c;" horiz-adv-x="983" d="M205 528v41l573 379v-82l-479 -315l479 -320v-81z" />
<glyph unicode="=" d="M205 369v71h737v-71h-737zM205 655v72h737v-72h-737z" />
<glyph unicode="&#x3e;" horiz-adv-x="983" d="M205 150v81l479 320l-479 315v82l573 -379v-41z" />
<glyph unicode="?" horiz-adv-x="1097" d="M123 1188q0 43 27.5 88.5t78 86t133 66t181.5 25.5q104 0 188 -32t136 -84.5t80 -117.5t28 -135q0 -46 -9.5 -91t-37 -96.5t-70.5 -93t-116 -76.5t-167 -52l-30 -266h-62l-20 311q83 23 144.5 56t96 67.5t55 78t26.5 80.5t6 82q0 145 -76 221t-203 76q-135 0 -236 -82 v-20q45 -20 55.5 -67.5t-19 -87.5t-87.5 -40q-43 0 -72.5 30t-29.5 73zM389 102q0 51 36 87t87 36t87 -36t36 -87t-36 -86.5t-87 -35.5t-87 35.5t-36 86.5z" />
<glyph unicode="@" horiz-adv-x="1810" d="M205 350q0 163 64.5 312.5t171 257t249 171.5t293.5 64q132 0 243 -37.5t197 -111t134.5 -193t48.5 -274.5q0 -123 -34 -228.5t-91 -176.5t-132.5 -110.5t-158.5 -39.5q-78 0 -117.5 42.5t-44.5 108.5q-30 -68 -95 -111.5t-132 -43.5q-64 0 -115 30.5t-80 80.5t-42.5 112 t-9 128t25.5 124q49 142 157 239t236 97q59 0 102 -32t58 -93h6l121 102h22l-98 -528q-6 -31 -8.5 -52.5t-1.5 -48t9 -42.5t26.5 -27t47.5 -11q47 0 96 31t92.5 87.5t71 149.5t27.5 203q0 125 -30 222.5t-81.5 161t-125 105t-154 58.5t-174.5 17q-177 0 -323 -101.5 t-228 -271t-82 -367.5q0 -293 144.5 -449.5t427.5 -156.5q127 0 251 42.5t224 123.5l20 -37q-111 -93 -256.5 -144.5t-302.5 -51.5q-189 0 -337.5 86.5t-230 239t-81.5 343.5zM706.5 288.5q-3.5 -66.5 7.5 -120t40.5 -86.5t74.5 -33q96 0 175 141q20 41 43 140.5t36 179.5 q11 61 6.5 103t-24 68.5t-41.5 38t-45 11.5q-180 0 -252 -307q-17 -69 -20.5 -135.5z" />
<glyph unicode="A" horiz-adv-x="1433" d="M20 0v61l170 11l461 1331l117 51l512 -1382l133 -11v-61h-512v61l184 11l-157 420h-510l-135 -420l188 -11v-61h-451zM440 563h461l-225 666h-21z" />
<glyph unicode="B" horiz-adv-x="1249" d="M82 0v61l184 11v1290l-184 10v62h553q225 0 348 -95.5t123 -253.5q0 -120 -80 -208t-207 -123v-4q181 -45 264.5 -143.5t83.5 -227.5q0 -173 -123 -276t-348 -103h-614zM430 72h225q77 0 137 17.5t97.5 46.5t61 71t33 86t9.5 96q0 70 -22.5 126t-69 100t-124.5 68 t-183 24h-164v-635zM430 778h123q207 0 293 73t86 214q0 297 -318 297h-184v-584z" />
<glyph unicode="C" horiz-adv-x="1331" d="M102 717q0 211 88.5 380t242.5 263t345 94q138 0 255.5 -37.5t195.5 -85.5l10 -327h-72l-37 229q-133 149 -352 149q-214 0 -352.5 -187t-138.5 -478q0 -192 63 -344t175 -237t253 -85q227 0 363 148l37 231h71l-20 -328q-77 -48 -195 -85t-256 -37q-191 0 -345 94 t-242.5 263t-88.5 380z" />
<glyph unicode="D" horiz-adv-x="1515" d="M82 0v61l184 11v1290l-184 10v62h614q332 0 524.5 -190.5t192.5 -526.5q0 -157 -50.5 -290t-142.5 -227t-226.5 -147t-297.5 -53h-614zM430 72h266q109 0 198.5 36t150.5 97.5t103.5 144.5t61.5 175.5t19 191.5q0 145 -33 261.5t-99 203t-173 133.5t-248 47h-246v-1290z " />
<glyph unicode="E" horiz-adv-x="1228" d="M82 0v61l184 11v1290l-184 10v62h1024l10 -328h-72l-30 235l-584 21v-604l399 10l11 195h71v-482h-71l-11 195l-399 10v-614l604 20l41 236h72l-21 -328h-1044z" />
<glyph unicode="F" horiz-adv-x="1177" d="M82 0v61l184 11v1290l-184 10v62h1024l10 -328h-72l-30 235l-584 21v-645l399 10l11 195h71v-482h-71l-11 195l-399 10v-573l184 -11v-61h-532z" />
<glyph unicode="G" horiz-adv-x="1454" d="M102 717q0 211 88.5 380t242.5 263t345 94q138 0 255.5 -37.5t195.5 -85.5l10 -327h-72l-37 229q-133 149 -352 149q-214 0 -352.5 -187t-138.5 -478q0 -192 63 -344t175 -237t253 -85q194 0 328 137v375l-184 10v62h471v-62l-123 -10v-420q-78 -58 -216 -110.5 t-276 -52.5q-191 0 -345 94t-242.5 263t-88.5 380z" />
<glyph unicode="H" horiz-adv-x="1597" d="M82 0v61l184 11v1290l-184 10v62h532v-62l-184 -10v-594h737v594l-184 10v62h533v-62l-185 -10v-1290l185 -11v-61h-533v61l184 11v624h-737v-624l184 -11v-61h-532z" />
<glyph unicode="I" horiz-adv-x="696" d="M82 0v61l184 11v1290l-184 10v62h532v-62l-184 -10v-1290l184 -11v-61h-532z" />
<glyph unicode="J" horiz-adv-x="757" d="M41 82q0 59 49 86q23 13 46 13q26 0 51 -15q49 -29 49 -105h20q33 0 53.5 25.5t28 87t9 102t1.5 130.5v45v911l-184 10v62h532v-62l-184 -10v-911q0 -213 -95 -342t-243 -129q-66 0 -99.5 28.5t-33.5 73.5z" />
<glyph unicode="K" horiz-adv-x="1505" d="M82 0v61l184 11v1290l-184 10v62h532v-62l-184 -10v-604h164l473 604l-197 10v62h512v-62l-202 -10l-494 -594l617 -696l161 -11v-61h-594v61l207 11l-555 624h-92v-624l184 -11v-61h-532z" />
<glyph unicode="L" horiz-adv-x="1187" d="M82 0v61l184 11v1290l-184 10v62h532v-62l-184 -10v-1290l604 20l41 236h72l-21 -328h-1044z" />
<glyph unicode="M" horiz-adv-x="1802" d="M82 0v61l184 11v1290l-184 10v62h379l450 -1158h21l430 1158h358v-62l-184 -10v-1290l184 -11v-61h-532v61l184 11v1136h-20l-441 -1218h-82l-471 1218h-20l10 -1136l184 -11v-61h-450z" />
<glyph unicode="N" horiz-adv-x="1495" d="M82 0v61l184 11v1290l-184 10v62h379l696 -1117h21l-11 1045l-184 10v62h451v-62l-185 -10v-1372h-102l-789 1270h-20l10 -1188l184 -11v-61h-450z" />
<glyph unicode="O" horiz-adv-x="1597" d="M102 717q0 158 55 296t149 234.5t222 151.5t271 55t271 -55t221.5 -151.5t148.5 -234.5t55 -296t-55 -296t-148.5 -234.5t-221.5 -151.5t-271 -55t-271 55t-222 151.5t-149 234.5t-55 296zM287 717q0 -191 68.5 -344t185.5 -237.5t258 -84.5t258 84.5t185.5 237.5 t68.5 344q0 288 -148 476.5t-364 188.5t-364 -188.5t-148 -476.5z" />
<glyph unicode="P" horiz-adv-x="1249" d="M82 0v61l184 11v1290l-184 10v62h614q224 0 347.5 -108t123.5 -282q0 -64 -18 -123.5t-60.5 -116t-106.5 -98t-163.5 -67t-224.5 -25.5h-164v-542l184 -11v-61h-532zM430 686h164q89 0 159 18t114.5 49t73 74.5t40.5 92t12 104.5q0 66 -16 121t-52.5 104t-105 79 t-164.5 34h-225v-676z" />
<glyph unicode="Q" horiz-adv-x="1597" d="M102 717q0 158 55 296t149 234.5t222 151.5t271 55t271 -55t221.5 -151.5t148.5 -234.5t55 -296q0 -285 -165.5 -488t-428.5 -249v-21l655 -328v-51l-225 -51l-870 532q-163 101 -261 271.5t-98 384.5zM287 717q0 -191 68.5 -344t185.5 -237.5t258 -84.5t258 84.5 t185.5 237.5t68.5 344q0 288 -148 476.5t-364 188.5t-364 -188.5t-148 -476.5z" />
<glyph unicode="R" horiz-adv-x="1372" d="M82 0v61l184 11v1290l-184 10v62h594q225 0 348 -103t123 -276q0 -143 -83.5 -250t-275.5 -150l431 -583l112 -11v-61h-307l-430 635h-164v-563l184 -11v-61h-532zM430 707h164q111 0 188 25t117.5 72t57 102t16.5 128q0 66 -16 121t-52.5 103.5t-105 76t-164.5 27.5 h-205v-655z" />
<glyph unicode="S" horiz-adv-x="1105" d="M102 430h72l41 -246q133 -133 334 -133q135 0 207.5 79.5t72.5 209.5q0 54 -21 101t-49.5 79t-79 64t-87 49.5t-94.5 42.5q-83 35 -145 73t-114 88t-79 113.5t-27 139.5q0 157 115 260.5t319 103.5q145 0 293 -55l41 45h41l10 -410h-71l-31 236q-112 112 -281 112 q-129 0 -195.5 -59.5t-66.5 -175.5q0 -62 24 -113.5t68.5 -89.5t91 -64t109.5 -51q404 -162 404 -440q0 -185 -125 -297t-330 -112q-69 0 -137 10t-110.5 20.5t-106.5 30.5l-41 -51h-41z" />
<glyph unicode="T" horiz-adv-x="1228" d="M61 1106l11 328h1085l10 -328h-71l-31 242l-369 10v-1286l185 -11v-61h-533v61l184 11v1286l-368 -10l-31 -242h-72z" />
<glyph unicode="U" horiz-adv-x="1556" d="M61 1372v62h533v-62l-184 -10v-789q0 -512 399 -512q206 0 313 132t107 380v789l-185 10v62h451v-62l-184 -10v-809q0 -274 -145 -423.5t-398 -149.5q-263 0 -392.5 150t-129.5 423v809z" />
<glyph unicode="V" horiz-adv-x="1433" d="M20 1372v62h533v-62l-205 -10l410 -1157h20l369 1157l-184 10v62h450v-62l-172 -10l-473 -1372h-102l-512 1372z" />
<glyph unicode="W" horiz-adv-x="2068" d="M20 1372v62h533v-62l-205 -10l369 -1147h20l283 829l-98 318l-144 10v62h533v-62l-191 -10l330 -1147h20l306 1147l-179 10v62h451v-62l-174 -10l-410 -1372h-123l-272 891h-20l-330 -891h-103l-462 1372z" />
<glyph unicode="X" horiz-adv-x="1454" d="M41 0v61l164 11l440 614l-399 676l-174 10v62h583v-62l-178 -10l295 -518l334 518l-184 10v62h460v-62l-163 -10l-410 -584l430 -706l174 -11v-61h-604v61l195 11l-318 553l-379 -553l215 -11v-61h-481z" />
<glyph unicode="Y" horiz-adv-x="1392" d="M20 1372v62h512v-62l-153 -10l358 -727h21l340 727l-156 10v62h430v-62l-174 -10l-410 -797v-493l185 -11v-61h-533v61l185 11v405l-461 885z" />
<glyph unicode="Z" horiz-adv-x="1228" d="M82 0v41l819 1300v21l-676 -21l-30 -235h-72l10 328h993v-41l-819 -1301v-20l717 20l51 236h72l-31 -328h-1034z" />
<glyph unicode="[" horiz-adv-x="778" d="M205 -532v2283h471v-72h-328v-2140h328v-71h-471z" />
<glyph unicode="\" horiz-adv-x="983" d="M240 1454h79l424 -1454h-81z" />
<glyph unicode="]" horiz-adv-x="778" d="M102 -461h328v2140h-328v72h471v-2283h-471v71z" />
<glyph unicode="^" horiz-adv-x="1044" d="M205 1004l297 471h41l297 -471h-41l-277 296l-276 -296h-41z" />
<glyph unicode="_" horiz-adv-x="1249" d="M205 -102h839v-72h-839v72z" />
<glyph unicode="`" horiz-adv-x="755" d="M195 1495h182l184 -369h-41z" />
<glyph unicode="a" horiz-adv-x="1044" d="M102 195q0 177 308 286l266 92v226q0 67 -55.5 115.5t-169.5 48.5q-88 0 -154 -31v-21q45 -20 55 -67q3 -12 3 -24q1 -33 -21 -63q-30 -40 -88 -40q-43 0 -73 29.5t-30 72.5q0 81 114.5 153t274.5 72q143 0 225.5 -60t82.5 -185v-717l184 -21v-61l-307 -20h-41v112h-21 q-94 -60 -162.5 -86t-154.5 -26q-112 0 -174 60t-62 155zM266 236q0 -64 47 -99t107 -35q135 0 256 52v358l-205 -82q-115 -45 -160 -88.5t-45 -105.5z" />
<glyph unicode="b" horiz-adv-x="1187" d="M20 1352v41l287 102h41v-573h21q139 122 307 122q196 0 313 -149t117 -383q0 -229 -135 -380.5t-336 -151.5q-73 0 -134.5 16t-131.5 65h-21l-123 -81h-41v1290zM348 147q61 -41 119.5 -58t136.5 -17q139 0 228.5 111t89.5 329t-89.5 329t-228.5 111q-122 0 -256 -116 v-689z" />
<glyph unicode="c" horiz-adv-x="1044" d="M82 512q0 101 28.5 188.5t77.5 149.5t113 106.5t136 66t147 21.5q91 0 163 -22t113 -57.5t61.5 -75.5t20.5 -80q0 -49 -29.5 -81t-72.5 -32q-58 0 -88 40q-22 30 -22 63q0 13 2 25q10 48 56 67v20q-72 72 -215 72q-152 0 -241.5 -113.5t-89.5 -294.5q0 -222 101.5 -342 t270.5 -120q99 0 184.5 48.5t123.5 125.5h41q-32 -128 -140 -217.5t-250 -89.5q-115 0 -210 44t-155 118.5t-93 169.5t-33 200z" />
<glyph unicode="d" horiz-adv-x="1228" d="M82 512q0 229 135 380.5t336 151.5q73 0 134.5 -16t131.5 -65h21v307l-164 82v41l287 102h41v-1413l184 -21v-61l-307 -20h-41v122h-21q-139 -122 -307 -122q-196 0 -313 149t-117 383zM266 512q0 -218 89.5 -329t228.5 -111q122 0 256 116v689q-61 41 -119.5 58 t-136.5 17q-139 0 -228.5 -111t-89.5 -329z" />
<glyph unicode="e" horiz-adv-x="1044" d="M82 512q0 123 42.5 225t113 168t160 102.5t186.5 36.5q61 0 118 -16.5t109.5 -52t86.5 -91.5q35 -54 49 -132q6 -33 6 -70q0 -50 -11 -109h-700v-19q0 -191 95 -313q100 -128 277 -128q99 0 184.5 48.5t123.5 125.5h41q-32 -128 -140 -217.5t-250 -89.5q-115 0 -210 44 t-155 118.5t-93 169.5t-33 200zM246 635l512 31q14 59 14 108q0 76 -34 126q-56 82 -165 83q-131 0 -221.5 -97t-105.5 -251z" />
<glyph unicode="f" horiz-adv-x="696" d="M61 0v61l185 11v870h-164v72l164 10v61q0 174 100 292t238 118q66 0 99.5 -28.5t33.5 -73.5q0 -59 -49 -87q-23 -13 -47 -13q-25 0 -50 15q-49 29 -49 105h-20q-17 0 -30.5 -6.5t-23 -21.5t-16 -29.5t-11 -42t-7 -46.5t-3.5 -55t-1 -56.5v-60.5v-10v-61h266v-82h-266 v-870l245 -11v-61h-594z" />
<glyph unicode="g" horiz-adv-x="1116" d="M41 -225q0 74 64.5 138.5t160.5 98.5v19q-63 18 -98 56.5t-35 86.5q0 50 40 92.5t134 87.5v19q-93 48 -149 124t-56 179q0 158 116.5 263t293.5 105q137 0 242 -65q93 104 229 104q66 0 99.5 -27t33.5 -69q0 -56 -48 -82q-24 -13 -48 -13l-50 14q-48 27 -48 100 q-66 0 -111 -72q100 -97 100 -248q0 -165 -110 -261.5t-289 -96.5q-75 0 -143 22q-72 -72 -72 -125q0 -55 123 -67l325 -29q159 -13 229 -70t70 -161q0 -115 -85.5 -201t-218 -127t-289.5 -41q-195 0 -302.5 68t-107.5 178zM205 -203q0 -90 62 -148.5t204 -58.5 q179 0 294.5 69t115.5 175q0 32 -9 54.5t-34.5 42.5t-75.5 33t-127 20l-318 28q-48 -43 -80 -101.5t-32 -113.5zM276 684q10 -135 77.5 -215t168.5 -80q111 0 167 86q49 75 49 185q0 16 -1 32q-8 128 -72.5 209.5t-162.5 81.5q-109 0 -172 -82q-55 -71 -55 -181q0 -18 1 -36 z" />
<glyph unicode="h" horiz-adv-x="1269" d="M61 0v61l185 11v1198l-164 82v41l287 102h41v-635h20q94 94 182.5 139t196.5 45q113 0 184.5 -74.5t71.5 -232.5v-665l184 -11v-61h-491v61l143 11v665q0 87 -38.5 136t-114.5 49q-85 0 -162 -30t-176 -114v-706l184 -11v-61h-533z" />
<glyph unicode="i" horiz-adv-x="614" d="M61 0v61l185 11v747l-164 82v41l287 102h41v-972l184 -11v-61h-533zM205 1331q0 51 36 87t87 36t87 -36t36 -87t-36 -87t-87 -36t-87 36t-36 87z" />
<glyph unicode="j" horiz-adv-x="573" d="M-61 -369q0 59 49 87q23 13 47 13l49 -15q49 -29 49 -105h21q33 0 53.5 25.5t28 86.5t9 101.5t1.5 130.5v45v819l-164 82v41l287 102h41v-1044q0 -213 -95 -342t-243 -129q-66 0 -99.5 28.5t-33.5 73.5zM205 1331q0 51 36 87t87 36t87 -36t36 -87t-36 -87t-87 -36t-87 36 t-36 87z" />
<glyph unicode="k" horiz-adv-x="1269" d="M61 0v61l185 11v1198l-164 82v41l287 102h41v-922h174l327 379l-174 11v61h441v-61l-152 -11l-360 -368l430 -512l133 -11v-61h-492v61l144 11l-369 440h-102v-440l163 -11v-61h-512z" />
<glyph unicode="l" horiz-adv-x="614" d="M61 0v61l185 11v1198l-164 82v41l287 102h41v-1423l184 -11v-61h-533z" />
<glyph unicode="m" horiz-adv-x="1884" d="M61 0v61l185 11v747l-164 82v41l287 102h41v-184h20q89 97 169.5 140.5t188.5 43.5q94 0 160.5 -52t87.5 -163h21q90 108 175 161.5t191 53.5q113 0 184.5 -74.5t71.5 -232.5v-665l185 -11v-61h-492v61l144 11v665q0 87 -39 136t-115 49q-74 0 -138 -37t-180 -137v-676 l185 -11v-61h-492v61l144 11v665q0 87 -39 136t-115 49q-78 0 -139.5 -28t-177.5 -116v-706l184 -11v-61h-533z" />
<glyph unicode="n" horiz-adv-x="1269" d="M61 0v61l185 11v747l-164 82v41l287 102h41v-184h20q94 94 182.5 139t196.5 45q113 0 184.5 -74.5t71.5 -232.5v-665l184 -11v-61h-491v61l143 11v665q0 87 -38.5 136t-114.5 49q-85 0 -162 -30t-176 -114v-706l184 -11v-61h-533z" />
<glyph unicode="o" d="M82 512q0 146 62 267.5t175 193t254 71.5t254 -71.5t175.5 -193t62.5 -267.5t-62.5 -267.5t-175.5 -193t-254 -71.5t-254 71.5t-175 193t-62 267.5zM266 512q0 -226 83 -348.5t224 -122.5t224.5 122.5t83.5 348.5t-83.5 348.5t-224.5 122.5t-224 -122.5t-83 -348.5z" />
<glyph unicode="p" horiz-adv-x="1208" d="M20 -389l185 10v1198l-164 82v41l287 102h41v-122h20q139 122 307 122q196 0 313 -149t117 -383q0 -229 -135 -380.5t-336 -151.5q-73 0 -134.5 16t-131.5 65h-20v-440l184 -10v-62h-533v62zM369 147q61 -41 119.5 -58t136.5 -17q138 0 227.5 110.5t89.5 329.5 t-89.5 329.5t-227.5 110.5q-122 0 -256 -116v-689z" />
<glyph unicode="q" horiz-adv-x="1167" d="M82 512q0 229 135 380.5t336 151.5q73 0 134.5 -16t131.5 -65h21l123 81h41v-1423l184 -10v-62h-533v62l185 10v481h-21q-139 -122 -307 -122q-196 0 -313 149t-117 383zM266 512q0 -218 89.5 -329t228.5 -111q122 0 256 116v689q-61 41 -119.5 58t-136.5 17 q-139 0 -228.5 -111t-89.5 -329z" />
<glyph unicode="r" horiz-adv-x="880" d="M61 0v61l185 11v747l-164 82v41l287 102h41v-266h20q75 133 140 199.5t137 66.5q49 0 80.5 -29.5t31.5 -72.5q0 -58 -40 -88q-30 -22 -63 -21q-12 1 -24 3q-47 10 -67 55h-21q-100 -75 -194 -215v-604l184 -11v-61h-533z" />
<glyph unicode="s" horiz-adv-x="880" d="M82 -20v307h61l31 -144q38 -41 107 -71.5t139 -30.5q104 0 159.5 53.5t55.5 141.5q0 20 -4.5 37.5t-11.5 32t-20 29t-23.5 24.5t-30 22t-32 19t-36 17t-35.5 15t-37.5 15t-35.5 14q-67 27 -111.5 51t-85 60t-60.5 84.5t-20 111.5q0 124 95 200t253 76q117 0 236 -40 l41 40h41v-307h-62l-30 144q-39 42 -103 72t-133 30q-92 0 -143 -43.5t-51 -120.5q0 -45 17.5 -79t59 -60t68 -37.5t84.5 -32.5q11 -4 16 -6q53 -19 92 -36.5t84.5 -46t74 -59.5t48 -76.5t19.5 -98.5q0 -143 -106.5 -225t-272.5 -82q-137 0 -256 40l-41 -40h-41z" />
<glyph unicode="t" horiz-adv-x="757" d="M61 942v72l164 10l82 246h82v-246h307v-82h-307v-696q0 -95 29 -129.5t94 -34.5q61 0 184 10v-41q-80 -40 -136 -55.5t-130 -15.5q-108 0 -156.5 57.5t-48.5 187.5v717h-164z" />
<glyph unicode="u" horiz-adv-x="1208" d="M20 963v61l308 20h41v-757q0 -87 38.5 -136t114.5 -49q82 0 149 29t169 115v706l-185 11v61l308 20h41v-962l184 -21v-61l-307 -20h-41v184h-21q-89 -97 -169.5 -140.5t-188.5 -43.5q-113 0 -184.5 74.5t-71.5 232.5v665z" />
<glyph unicode="v" horiz-adv-x="1187" d="M20 963v61h533v-61l-184 -11l297 -778h20l252 778l-139 11v61h368v-61l-127 -11l-364 -962h-113l-389 962z" />
<glyph unicode="w" horiz-adv-x="1761" d="M20 963v61h492v-61l-164 -11l266 -757h21l194 634l-41 123l-133 11v61h492v-61l-164 -11l266 -757h21l241 757l-139 11v61h369v-61l-127 -11l-365 -962h-112l-246 686h-21l-256 -686h-112l-348 962z" />
<glyph unicode="x" d="M41 0v61l143 11l318 420l-307 460l-134 11v61h492v-61l-143 -11l202 -325l228 325l-133 11v61h378v-61l-143 -11l-297 -368l328 -512l133 -11v-61h-492v61l144 11l-221 374l-250 -374l133 -11v-61h-379z" />
<glyph unicode="y" horiz-adv-x="1187" d="M20 963v61h533v-61l-184 -11l307 -757h20l242 757l-139 11v61h368v-61l-127 -11l-401 -1054q-15 -39 -26 -66t-31.5 -69t-39 -71t-46 -62t-56 -53.5t-66 -34t-77.5 -13.5q-66 0 -99.5 28.5t-33.5 73.5q0 59 48 87q24 13 48 13l50 -15q48 -29 48 -105h21q29 0 61 36.5 t60.5 98t50.5 120.5t43 124l-420 962z" />
<glyph unicode="z" horiz-adv-x="983" d="M61 0v61l625 881v21l-491 -21l-31 -205h-62l11 287h778v-61l-625 -881v-21l553 21l31 205h61l-10 -287h-840z" />
<glyph unicode="{" horiz-adv-x="880" d="M102 553v68q48 9 75 15.5t59 17.5t49 24.5t34 34t26 49t13 67.5q11 82 -18 314t-29 282q0 83 20 141t55 94t95.5 56.5t129 27.5t167.5 7v-51q-68 -2 -116 -11.5t-90 -34t-64.5 -71.5t-26.5 -117q-2 -32 16.5 -301.5t12.5 -316.5q-5 -46 -25 -84.5t-39 -61t-60.5 -47 t-59 -32t-65.5 -26.5q-12 -5 -17 -7v-2q4 -2 31.5 -13t35 -14.5t32.5 -15t35 -18.5t31 -21t30.5 -25.5t24.5 -29t22 -35.5t14 -41t10 -49q5 -45 -13 -304t-16 -292q3 -54 19 -92t38.5 -59t61 -33t73.5 -16.5t89 -9.5q11 -1 16 -1v-51q-64 0 -108.5 1.5t-93.5 6.5t-81.5 14.5 t-65 24.5t-52.5 37.5t-36 53.5t-23 72t-7 93q0 51 29 273t18 304q-7 58 -24 95t-51 59t-74 32.5t-107 18.5z" />
<glyph unicode="|" horiz-adv-x="481" d="M205 -205v1884h71v-1884h-71z" />
<glyph unicode="}" horiz-adv-x="880" d="M102 -479q68 2 116 11.5t90 33.5t64.5 71t26.5 117q2 32 -16 302t-12 317q5 46 25 84.5t39 61t60.5 47t59 32t65.5 26.5q12 5 17 7v2q-4 2 -31.5 13t-35 14.5t-32.5 15t-35 18.5t-31 21t-30.5 25.5t-24.5 29t-22 35.5t-14 41t-10 49q-6 45 12 304.5t16 291.5 q-3 54 -19 92t-38.5 59t-61 33t-73.5 16.5t-89 9.5q-11 1 -16 1v51q64 0 108.5 -1.5t93.5 -6.5t81.5 -14.5t65 -24.5t52.5 -37.5t36 -53.5t23 -72t7 -93q0 -51 -29 -273.5t-18 -304.5q7 -58 24 -94.5t51 -58.5t74 -32.5t107 -18.5v-68q-57 -11 -88 -19t-65.5 -23t-52 -35.5 t-31.5 -53t-19 -78.5q-11 -82 18 -314t29 -282q0 -83 -20 -141t-55 -94t-96 -56t-129 -27t-167 -7v51z" />
<glyph unicode="~" horiz-adv-x="1126" d="M205 676q18 36 29.5 58.5t34 58t41.5 56t46 36.5t54 16q41 0 164 -41t163 -41q57 0 88 15t66 67l31 -20l-28.5 -55.5t-31 -52.5t-39 -51t-43.5 -31.5t-53 -14.5q-48 0 -169 41t-169 41q-53 0 -81 -20.5t-72 -82.5z" />
<glyph unicode="&#xa1;" horiz-adv-x="655" d="M205 922q0 51 36 86.5t87 35.5t87 -35.5t36 -86.5t-36 -87t-87 -36t-87 36t-36 87zM217 -451l82 1065h61l74 -1065h-217z" />
<glyph unicode="&#xa2;" horiz-adv-x="1126" d="M123 512q0 117 38 215t101.5 162.5t143 103t167.5 47.5v189h72v-185q165 -6 251.5 -78t86.5 -157q0 -49 -29.5 -81t-72.5 -32q-58 0 -88 40t-19.5 87.5t55.5 67.5v20q-63 63 -184 70v-868q106 0 192.5 48t125.5 126h41q-30 -121 -129 -208t-230 -97v-187h-72v187 q-106 7 -192.5 54t-142 120t-85.5 164.5t-30 191.5zM283 575q0 -193 78 -310t212 -144v860q-134 -17 -212 -128t-78 -278z" />
<glyph unicode="&#xa3;" horiz-adv-x="1273" d="M125.5 91.5q9.5 42.5 42.5 68.5q55 43 139 53q41 55 62 113.5t22.5 123.5t-5 118t-21.5 128h-191v72h174q-26 122 -31 174q-11 88 2.5 165t47 131.5t79 97t99.5 67.5t107.5 38t105.5 13q91 0 163 -22t113 -57.5t61.5 -75.5t20.5 -80q0 -49 -29.5 -81t-72.5 -32 q-58 0 -87.5 40t-19 87t55.5 67v21q-72 72 -215 72q-65 0 -118 -22t-91.5 -67.5t-51 -115t4.5 -164.5q6 -33 28.5 -119.5t30.5 -136.5h278v-72h-270q18 -240 -174 -467l6 -14q61 -2 146.5 -13t151 -22t139 -15.5t125 3t92 37t55.5 82.5h51q-1 -5 -4 -15q-7 -29 -12.5 -46.5 t-19.5 -52t-30 -57t-44 -51t-61.5 -45t-83 -28.5t-108.5 -12q-81 0 -154 25t-118 55.5t-98 61t-94 38.5q22 -180 -107 -180q-53 0 -77 34.5t-14.5 77z" />
<glyph unicode="&#xa4;" horiz-adv-x="1050" d="M143 928l17 16l162 -184q90 74 204 74q113 0 203 -74l160 184l18 -16l-159 -183q102 -96 102 -235q0 -68 -26.5 -129t-73.5 -105l155 -176l-18 -18l-158 178q-88 -72 -203 -72q-116 0 -204 72l-156 -178l-19 18l156 176q-98 95 -98 234q0 138 98 233zM229 510 q0 -122 87.5 -209.5t209.5 -87.5t210.5 88t88.5 209q0 122 -88.5 210.5t-210.5 88.5q-121 0 -209 -88.5t-88 -210.5z" />
<glyph unicode="&#xa5;" horiz-adv-x="1619" d="M123 1341q0 49 40.5 81t102.5 32q44 0 84.5 -7.5t91.5 -30.5t96 -60t92.5 -102t86.5 -150.5t74.5 -211t58.5 -278.5h20q95 412 232 626t282 214q49 0 81 -29.5t32 -72.5q0 -58 -40 -88t-87 -19.5t-67 55.5h-21q-53 -8 -127 -127.5t-139.5 -293t-100.5 -336.5h283v-72 h-295q-12 -77 -12 -143v-256l184 -11v-61h-532v61l184 11v194q0 93 -16 205h-281v72h270q-50 270 -165.5 518t-208.5 321l-21 -10q23 -41 4 -80t-64.5 -48t-83.5 18t-38 79z" />
<glyph unicode="&#xa6;" horiz-adv-x="481" d="M205 -205v737h71v-737h-71zM205 942v737h71v-737h-71z" />
<glyph unicode="&#xa7;" horiz-adv-x="1236" d="M170 548.5q17 78.5 71 155t146 162.5q-143 114 -143 281q0 56 23 109.5t67 98.5t119 72t170 27t171.5 -26t121.5 -66.5t68.5 -85.5t23.5 -88q0 -49 -30 -81t-73 -32q-58 0 -87.5 40t-19 87.5t55.5 67.5v20q-30 35 -92 63.5t-139 28.5q-111 0 -178.5 -51t-67.5 -153 q0 -33 11 -64.5t25 -55t43 -49t47.5 -40t57 -35.5t53.5 -28t56 -25.5t45 -20.5q141 -65 225 -135.5t114 -141.5t13 -149.5t-71 -155.5t-146 -163q143 -116 143 -279q0 -56 -23 -109.5t-67 -98.5t-119 -72t-170 -27t-171.5 26t-121.5 66.5t-68.5 85.5t-23.5 88q0 49 30 81 t73 32q58 0 87.5 -40t19 -87.5t-55.5 -67.5v-20q30 -35 92 -63.5t139 -28.5q111 0 178.5 51t67.5 153q0 33 -11 64.5t-25 55t-43 49t-47.5 40t-57 35.5t-53.5 28t-56 25.5t-45 20.5q-141 65 -225 135.5t-114 141t-13 149zM319 560q-4 -51 9.5 -91.5t55 -77.5t87.5 -65 t115 -60q130 -63 188 -100q57 66 91 123t47 102t5 86t-27.5 72t-58.5 62t-80 54.5t-100 51.5q-131 62 -190 98q-66 -76 -102 -140t-40 -115z" />
<glyph unicode="&#xa8;" horiz-adv-x="1024" d="M205 1260q0 49 31 79.5t77 30.5q47 0 78 -30.5t31 -79.5q0 -47 -31.5 -77t-77.5 -30t-77 30t-31 77zM602 1260q0 49 31 79.5t78 30.5q46 0 77 -30.5t31 -79.5q0 -47 -31 -77t-77 -30t-77.5 30t-31.5 77z" />
<glyph unicode="&#xa9;" horiz-adv-x="1720" d="M123 717q0 150 58 286.5t157 235.5t235.5 157t286.5 58t286.5 -58t235.5 -157t157 -235.5t58 -286.5t-58 -286.5t-157 -235.5t-235.5 -157t-286.5 -58t-286.5 58t-235.5 157t-157 235.5t-58 286.5zM164 717q0 -189 93 -349.5t253.5 -254t349.5 -93.5t349.5 93.5 t253.5 254t93 349.5q0 142 -55 271t-148 222t-222 148t-271 55t-271 -55t-222 -148t-148 -222t-55 -271zM553 717q0 160 96 264t242 104q132 0 225 -61l6 -164h-37l-18 115q-68 76 -176 76q-107 0 -176.5 -94t-69.5 -240t69.5 -240t176.5 -94q112 0 182 74l19 116h34 l-10 -163q-94 -62 -225 -62q-145 0 -241.5 104.5t-96.5 264.5z" />
<glyph unicode="&#xaa;" horiz-adv-x="716" d="M82 614v41h553v-41h-553zM82 928q0 106 184 172l160 55v135q0 40 -33.5 69.5t-101.5 29.5q-47 0 -92 -19v-12q27 -12 33.5 -40.5t-11.5 -52.5t-53 -24q-26 0 -44 18t-18 44q0 48 69.5 91.5t164.5 43.5q86 0 135 -36.5t49 -111.5v-430l111 -12v-37l-184 -12h-25v67h-12 q-56 -36 -97.5 -51.5t-93.5 -15.5q-67 0 -104 36t-37 93zM180 952q0 -38 28 -59t64 -21q85 0 154 31v215l-123 -49q-68 -28 -95.5 -54t-27.5 -63z" />
<glyph unicode="&#xab;" horiz-adv-x="1392" d="M205 528v41l471 379v-82l-254 -315l254 -320v-81zM717 528v41l471 379v-82l-254 -315l254 -320v-81z" />
<glyph unicode="&#xac;" horiz-adv-x="1222" d="M205 512v72h813v-404h-72v332h-741z" />
<glyph unicode="&#xad;" d="M205 512v72h737v-72h-737z" />
<glyph unicode="&#xae;" horiz-adv-x="1720" d="M123 717q0 150 58 286.5t157 235.5t235.5 157t286.5 58t286.5 -58t235.5 -157t157 -235.5t58 -286.5t-58 -286.5t-157 -235.5t-235.5 -157t-286.5 -58t-286.5 58t-235.5 157t-157 235.5t-58 286.5zM164 717q0 -189 93 -349.5t253.5 -254t349.5 -93.5t349.5 93.5 t253.5 254t93 349.5q0 142 -55 271t-148 222t-222 148t-271 55t-271 -55t-222 -148t-148 -222t-55 -271zM557 358v31l92 4v647l-92 4v31h297q115 0 176.5 -50.5t61.5 -137.5q0 -161 -181 -201l215 -293l58 -4v-31h-154l-217 318h-82v-283l92 -4v-31h-266zM731 711h82 q108 0 149.5 44.5t41.5 121.5q0 71 -38.5 117t-131.5 46h-103v-329z" />
<glyph unicode="&#xaf;" horiz-adv-x="1044" d="M205 1229v71h635v-71h-635z" />
<glyph unicode="&#xb0;" horiz-adv-x="768" d="M205 1378q0 75 51.5 128t126.5 53t127.5 -53t52.5 -128t-52.5 -126.5t-127.5 -51.5t-126.5 51.5t-51.5 126.5zM266 1378q0 -49 33.5 -82.5t83.5 -33.5q51 0 85 33t34 83q0 51 -34 85t-85 34q-50 0 -83.5 -34t-33.5 -85z" />
<glyph unicode="&#xb1;" d="M205 164v72h332v276h-332v72h332v334h71v-334h334v-72h-334v-276h334v-72h-737z" />
<glyph unicode="&#xb2;" horiz-adv-x="634" d="M102 1147v41q338 248 338 481q0 77 -36 123.5t-97 46.5q-65 0 -117 -41v-10q22 -10 27 -33.5t-9.5 -44t-43.5 -20.5q-22 0 -36.5 14.5t-14.5 36.5q0 47 57.5 90t153.5 43q51 0 91.5 -19t64.5 -49t36 -65t12 -70q0 -222 -327 -446v-11l331 5v-72h-430z" />
<glyph unicode="&#xb3;" horiz-adv-x="651" d="M102 1260q0 22 15 36.5t37 14.5q29 0 43.5 -20t9.5 -43.5t-27 -33.5v-10q57 -41 127 -41q73 0 112.5 46.5t39.5 129.5q0 74 -38 117t-116 43h-37v39h27q65 0 101 40t36 97q0 55 -33 92t-92 37q-47 0 -89 -30t-64 -72h-21q15 67 72 114.5t129 47.5q83 0 135.5 -44.5 t52.5 -117.5q0 -63 -37.5 -108.5t-103.5 -67.5v-6q73 -8 120.5 -56.5t47.5 -130.5q0 -99 -72 -153t-174 -54q-82 0 -141.5 41.5t-59.5 92.5z" />
<glyph unicode="&#xb4;" horiz-adv-x="755" d="M195 1126l184 369h182l-325 -369h-41z" />
<glyph unicode="&#xb5;" horiz-adv-x="1208" d="M-102 -369q0 59 48.5 86.5t97 -1.5t48.5 -105h21q33 0 53.5 25.5t28 86.5t9 101.5t1.5 130.5v45v952l-185 11v61l308 20h41v-757q0 -87 38.5 -136t114.5 -49q82 0 149 29t169 115v706l-185 11v61l308 20h41v-962l184 -21v-61l-307 -20h-41v184h-21q-89 -97 -169.5 -140.5 t-188.5 -43.5h-92q0 -187 -97.5 -319t-240.5 -132q-66 0 -99.5 28.5t-33.5 73.5z" />
<glyph unicode="&#xb6;" horiz-adv-x="1413" d="M143 717q0 336 192.5 526.5t524.5 190.5h41v-1434h-41q-163 0 -297.5 53t-226.5 147t-142.5 227t-50.5 290zM1004 0v1434h266v-62l-164 -10v-1290l164 -11v-61h-266z" />
<glyph unicode="&#xb7;" horiz-adv-x="626" d="M205 539q0 49 31 79.5t77 30.5q47 0 78 -30.5t31 -79.5q0 -47 -31.5 -77t-77.5 -30t-77 30t-31 77z" />
<glyph unicode="&#xb8;" horiz-adv-x="763" d="M205 -446l12 63q66 -16 109 -16q57 0 86.5 32t29.5 80q0 47 -32.5 79t-96.5 44l6 164h56v-123q69 -12 126.5 -53.5t57.5 -114.5q0 -75 -55 -127.5t-146 -52.5q-70 0 -153 25z" />
<glyph unicode="&#xb9;" horiz-adv-x="655" d="M102 1147v31l185 6v614l-164 -16v30l225 62h21v-690l184 -6v-31h-451z" />
<glyph unicode="&#xba;" horiz-adv-x="753" d="M82 614v41h590v-41h-590zM82 1118q0 134 84 227t211 93t211 -93t84 -227t-84 -226.5t-211 -92.5t-211 92.5t-84 226.5zM193 1118q0 -136 49.5 -209t134.5 -73t134.5 73t49.5 209t-49.5 209.5t-134.5 73.5t-134.5 -73.5t-49.5 -209.5z" />
<glyph unicode="&#xbb;" horiz-adv-x="1392" d="M205 150v81l254 320l-254 315v82l471 -379v-41zM717 150v81l254 320l-254 315v82l471 -379v-41z" />
<glyph unicode="&#xbc;" horiz-adv-x="1638" d="M102 737v31l185 6v615l-164 -17v31l225 61h21v-690l184 -6v-31h-451zM532 0l328 717l307 737h62l-348 -737l-287 -717h-62zM1034 164v78l342 465l58 20v-502h102v-61h-102v-164h-82v164h-318zM1085 225h267v379h-11l-256 -368v-11z" />
<glyph unicode="&#xbd;" horiz-adv-x="1638" d="M102 737v31l185 6v615l-164 -17v31l225 61h21v-690l184 -6v-31h-451zM512 0l328 717l307 737h61l-348 -737l-287 -717h-61zM1106 0v41q338 248 338 481q0 77 -36 123.5t-97 46.5q-65 0 -117 -41v-10q22 -10 27 -33.5t-10 -44t-44 -20.5q-22 0 -36.5 14.5t-14.5 36.5 q0 47 57.5 90t153.5 43q99 0 152 -63t53 -140q0 -221 -328 -446v-10l332 4v-72h-430z" />
<glyph unicode="&#xbe;" horiz-adv-x="1638" d="M102 850q0 22 15 36.5t37 14.5q29 0 43.5 -20t9.5 -43t-27 -33v-10q57 -41 127 -41q73 0 112.5 46.5t39.5 129.5q0 74 -38 117t-116 43h-37v38h27q65 0 101 40.5t36 97.5q0 55 -33 92t-92 37q-47 0 -89 -30.5t-64 -72.5h-21q15 67 72 114.5t129 47.5q83 0 135.5 -44.5 t52.5 -117.5q0 -63 -37.5 -108.5t-103.5 -67.5v-6q73 -8 120.5 -56t47.5 -130q0 -99 -72 -153t-174 -54q-83 0 -142 41t-59 92zM532 0l328 717l307 737h62l-348 -737l-287 -717h-62zM1034 164v78l342 465l58 20v-502h102v-61h-102v-164h-82v164h-318zM1085 225h267v379h-11 l-256 -368v-11z" />
<glyph unicode="&#xbf;" horiz-adv-x="1056" d="M123 -102q0 46 9.5 91t37 96.5t70 93t115.5 76.5t167 52l31 307h61l21 -352q-83 -23 -144.5 -56t-96 -67.5t-55 -78t-26.5 -80.5t-6 -82q0 -145 76 -221t203 -76q134 0 235 82v20q-45 20 -55.5 67.5t19 87.5t87.5 40q43 0 73 -30t30 -73t-27.5 -88.5t-78 -86t-133 -66 t-181.5 -25.5q-104 0 -188 32t-136 84.5t-80 117.5t-28 135zM463 922q0 51 36 86.5t87 35.5t87 -35.5t36 -86.5t-36 -87t-87 -36t-87 36t-36 87z" />
<glyph unicode="&#xc0;" horiz-adv-x="1433" d="M20 0v61l170 11l461 1331l117 51l512 -1382l133 -11v-61h-512v61l184 11l-157 420h-510l-135 -420l188 -11v-61h-451zM377 1905h182l184 -369h-41zM440 563h461l-225 666h-21z" />
<glyph unicode="&#xc1;" horiz-adv-x="1433" d="M20 0v61l170 11l461 1331l117 51l512 -1382l133 -11v-61h-512v61l184 11l-157 420h-510l-135 -420l188 -11v-61h-451zM440 563h461l-225 666h-21zM680 1536l184 369h183l-326 -369h-41z" />
<glyph unicode="&#xc2;" horiz-adv-x="1433" d="M20 0v61l170 11l461 1331l117 51l512 -1382l133 -11v-61h-512v61l184 11l-157 420h-510l-135 -420l188 -11v-61h-451zM432 1536l256 369h41l256 -369h-41l-235 195l-236 -195h-41zM440 563h461l-225 666h-21z" />
<glyph unicode="&#xc3;" horiz-adv-x="1433" d="M20 0v61l170 11l461 1331l117 51l512 -1382l133 -11v-61h-512v61l184 11l-157 420h-510l-135 -420l188 -11v-61h-451zM360 1597q18 37 29.5 58.5t34 57.5t41.5 57t46 37t54 16q41 0 164.5 -41t163.5 -41q57 0 88 15t66 67l30 -21q-24 -48 -37 -71t-39.5 -61t-55.5 -55.5 t-62 -17.5q-48 0 -169 41t-169 41q-53 0 -82 -20t-72 -82zM440 563h461l-225 666h-21z" />
<glyph unicode="&#xc4;" horiz-adv-x="1433" d="M20 0v61l170 11l461 1331l117 51l512 -1382l133 -11v-61h-512v61l184 11l-157 420h-510l-135 -420l188 -11v-61h-451zM395 1669q0 49 31.5 80t77.5 31t77 -31t31 -80q0 -47 -31 -76.5t-77 -29.5t-77.5 29.5t-31.5 76.5zM440 563h461l-225 666h-21zM793 1669q0 49 31 80 t77 31t77.5 -31t31.5 -80q0 -47 -31.5 -76.5t-77.5 -29.5t-77 29.5t-31 76.5z" />
<glyph unicode="&#xc5;" horiz-adv-x="1433" d="M20 0v61l170 11l461 1331l117 51l512 -1382l133 -11v-61h-512v61l184 11l-157 420h-510l-135 -420l188 -11v-61h-451zM440 563h461l-225 666h-21zM535 1714q0 75 51.5 127.5t126.5 52.5t127.5 -52.5t52.5 -127.5t-52.5 -126.5t-127.5 -51.5t-126.5 51.5t-51.5 126.5z M596 1714q0 -53 31.5 -90t85.5 -37q56 0 87 37t31 90q0 54 -31 91.5t-87 37.5q-55 0 -86 -37.5t-31 -91.5z" />
<glyph unicode="&#xc6;" horiz-adv-x="1884" d="M20 0v61l175 11l716 1290l-184 10v62h1034l11 -328h-72l-31 235l-584 21v-604l400 10l10 195h72v-482h-72l-10 195l-400 10v-614l605 20l41 236h71l-20 -328h-1045v61l185 21v604h-306l-319 -614l174 -11v-61h-451zM653 758h269v485h-21z" />
<glyph unicode="&#xc7;" horiz-adv-x="1331" d="M102 717q0 211 88.5 380t242.5 263t345 94q138 0 255.5 -37.5t195.5 -85.5l10 -327h-72l-37 229q-133 149 -352 149q-214 0 -352.5 -187t-138.5 -478q0 -192 63 -344t175 -237t253 -85q227 0 363 148l37 231h71l-20 -328q-73 -47 -186.5 -83t-247.5 -39v-103 q69 -12 126.5 -53.5t57.5 -114.5q0 -75 -55 -127.5t-146 -52.5q-70 0 -153 25l12 63q66 -16 108 -16q57 0 87 32t30 80q0 47 -32.5 79t-96.5 44l4 146q-181 9 -325.5 104.5t-227 260.5t-82.5 370z" />
<glyph unicode="&#xc8;" horiz-adv-x="1228" d="M82 0v61l184 11v1290l-184 10v62h1024l10 -328h-72l-30 235l-584 21v-604l399 10l11 195h71v-482h-71l-11 195l-399 10v-614l604 20l41 236h72l-21 -328h-1044zM414 1905h182l184 -369h-41z" />
<glyph unicode="&#xc9;" horiz-adv-x="1228" d="M82 0v61l184 11v1290l-184 10v62h1024l10 -328h-72l-30 235l-584 21v-604l399 10l11 195h71v-482h-71l-11 195l-399 10v-614l604 20l41 236h72l-21 -328h-1044zM592 1536l184 369h182l-325 -369h-41z" />
<glyph unicode="&#xca;" horiz-adv-x="1228" d="M82 0v61l184 11v1290l-184 10v62h1024l10 -328h-72l-30 235l-584 21v-604l399 10l11 195h71v-482h-71l-11 195l-399 10v-614l604 20l41 236h72l-21 -328h-1044zM377 1536l256 369h41l256 -369h-41l-236 195l-235 -195h-41z" />
<glyph unicode="&#xcb;" horiz-adv-x="1228" d="M82 0v61l184 11v1290l-184 10v62h1024l10 -328h-72l-30 235l-584 21v-604l399 10l11 195h71v-482h-71l-11 195l-399 10v-614l604 20l41 236h72l-21 -328h-1044zM330 1669q0 49 31 80t77 31t77.5 -31t31.5 -80q0 -47 -31.5 -76.5t-77.5 -29.5t-77 29.5t-31 76.5zM727 1669 q0 49 31.5 80t77.5 31t77 -31t31 -80q0 -47 -31 -76.5t-77 -29.5t-77.5 29.5t-31.5 76.5z" />
<glyph unicode="&#xcc;" horiz-adv-x="696" d="M-8 1905h182l184 -369h-41zM82 0v61l184 11v1290l-184 10v62h532v-62l-184 -10v-1290l184 -11v-61h-532z" />
<glyph unicode="&#xcd;" horiz-adv-x="696" d="M82 0v61l184 11v1290l-184 10v62h532v-62l-184 -10v-1290l184 -11v-61h-532zM315 1536l185 369h182l-326 -369h-41z" />
<glyph unicode="&#xce;" horiz-adv-x="696" d="M72 1536l256 369h41l256 -369h-41l-236 195l-235 -195h-41zM82 0v61l184 11v1290l-184 10v62h532v-62l-184 -10v-1290l184 -11v-61h-532z" />
<glyph unicode="&#xcf;" horiz-adv-x="696" d="M41 1669q0 49 31.5 80t77.5 31t77 -31t31 -80q0 -47 -31 -76.5t-77 -29.5t-77.5 29.5t-31.5 76.5zM82 0v61l184 11v1290l-184 10v62h532v-62l-184 -10v-1290l184 -11v-61h-532zM438 1669q0 49 31.5 80t77.5 31t77 -31t31 -80q0 -47 -31 -76.5t-77 -29.5t-77.5 29.5 t-31.5 76.5z" />
<glyph unicode="&#xd0;" horiz-adv-x="1515" d="M82 0v61l184 11v624h-164v72h164v594l-184 10v62h614q332 0 524.5 -190.5t192.5 -526.5q0 -157 -50.5 -290t-142.5 -227t-226.5 -147t-297.5 -53h-614zM430 72h266q109 0 198.5 36t150.5 97.5t103.5 144.5t61.5 175.5t19 191.5q0 145 -33 261.5t-99 203t-173 133.5 t-248 47h-246v-594h266v-72h-266v-624z" />
<glyph unicode="&#xd1;" horiz-adv-x="1495" d="M82 0v61l184 11v1290l-184 10v62h379l696 -1117h21l-11 1045l-184 10v62h451v-62l-185 -10v-1372h-102l-789 1270h-20l10 -1188l184 -11v-61h-450zM428 1597q18 37 29.5 58.5t34 57.5t41.5 57t46 37t54 16q41 0 164.5 -41t163.5 -41q57 0 87.5 15t65.5 67l31 -21 l-28.5 -55.5t-31 -52.5t-39 -51t-43.5 -31.5t-53 -14.5q-48 0 -169 41t-169 41q-53 0 -81 -20t-72 -82z" />
<glyph unicode="&#xd2;" horiz-adv-x="1597" d="M102 717q0 158 55 296t149 234.5t222 151.5t271 55t271 -55t221.5 -151.5t148.5 -234.5t55 -296t-55 -296t-148.5 -234.5t-221.5 -151.5t-271 -55t-271 55t-222 151.5t-149 234.5t-55 296zM287 717q0 -191 68.5 -344t185.5 -237.5t258 -84.5t258 84.5t185.5 237.5 t68.5 344q0 288 -148 476.5t-364 188.5t-364 -188.5t-148 -476.5zM453 1905h182l184 -369h-41z" />
<glyph unicode="&#xd3;" horiz-adv-x="1597" d="M102 717q0 158 55 296t149 234.5t222 151.5t271 55t271 -55t221.5 -151.5t148.5 -234.5t55 -296t-55 -296t-148.5 -234.5t-221.5 -151.5t-271 -55t-271 55t-222 151.5t-149 234.5t-55 296zM287 717q0 -191 68.5 -344t185.5 -237.5t258 -84.5t258 84.5t185.5 237.5 t68.5 344q0 288 -148 476.5t-364 188.5t-364 -188.5t-148 -476.5zM752 1536l184 369h182l-325 -369h-41z" />
<glyph unicode="&#xd4;" horiz-adv-x="1597" d="M102 717q0 158 55 296t149 234.5t222 151.5t271 55t271 -55t221.5 -151.5t148.5 -234.5t55 -296t-55 -296t-148.5 -234.5t-221.5 -151.5t-271 -55t-271 55t-222 151.5t-149 234.5t-55 296zM287 717q0 -191 68.5 -344t185.5 -237.5t258 -84.5t258 84.5t185.5 237.5 t68.5 344q0 288 -148 476.5t-364 188.5t-364 -188.5t-148 -476.5zM528 1536l256 369h41l256 -369h-41l-235 195l-236 -195h-41z" />
<glyph unicode="&#xd5;" horiz-adv-x="1597" d="M102 717q0 158 55 296t149 234.5t222 151.5t271 55t271 -55t221.5 -151.5t148.5 -234.5t55 -296t-55 -296t-148.5 -234.5t-221.5 -151.5t-271 -55t-271 55t-222 151.5t-149 234.5t-55 296zM287 717q0 -191 68.5 -344t185.5 -237.5t258 -84.5t258 84.5t185.5 237.5 t68.5 344q0 288 -148 476.5t-364 188.5t-364 -188.5t-148 -476.5zM459 1597q18 37 29.5 58.5t34 57.5t41.5 57t46 37t54 16q41 0 164 -41t163 -41q57 0 88 15t66 67l31 -21l-28.5 -55.5t-31 -52.5t-39 -51t-43.5 -31.5t-53 -14.5q-48 0 -169 41t-169 41q-53 0 -82 -20 t-72 -82z" />
<glyph unicode="&#xd6;" horiz-adv-x="1597" d="M102 717q0 158 55 296t149 234.5t222 151.5t271 55t271 -55t221.5 -151.5t148.5 -234.5t55 -296t-55 -296t-148.5 -234.5t-221.5 -151.5t-271 -55t-271 55t-222 151.5t-149 234.5t-55 296zM287 717q0 -191 68.5 -344t185.5 -237.5t258 -84.5t258 84.5t185.5 237.5 t68.5 344q0 288 -148 476.5t-364 188.5t-364 -188.5t-148 -476.5zM500 1669q0 49 31 80t77 31t77.5 -31t31.5 -80q0 -47 -31.5 -76.5t-77.5 -29.5t-77 29.5t-31 76.5zM897 1669q0 49 31.5 80t77.5 31t77 -31t31 -80q0 -47 -31 -76.5t-77 -29.5t-77.5 29.5t-31.5 76.5z" />
<glyph unicode="&#xd7;" horiz-adv-x="1126" d="M205 242l307 307l-307 307l49 51l307 -307l309 307l52 -49l-310 -309l310 -309l-52 -50l-309 308l-307 -308z" />
<glyph unicode="&#xd8;" horiz-adv-x="1597" d="M102 717q0 158 55 296t149 234.5t222 151.5t271 55q136 0 259 -50t218 -142l121 127l49 -58l-119 -125q168 -205 168 -489q0 -158 -55 -296t-148.5 -234.5t-221.5 -151.5t-271 -55q-271 0 -469 182l-125 -131l-53 59l124 129q-174 206 -174 498zM287 717q0 -215 92 -391 l805 839q-71 104 -170.5 160.5t-214.5 56.5q-216 0 -364 -188.5t-148 -476.5zM420 256q71 -98 169.5 -151.5t209.5 -53.5q141 0 258 84.5t185.5 237.5t68.5 344q0 215 -88 381z" />
<glyph unicode="&#xd9;" horiz-adv-x="1556" d="M61 1372v62h533v-62l-184 -10v-789q0 -512 399 -512q206 0 313 132t107 380v789l-185 10v62h451v-62l-184 -10v-809q0 -274 -145 -423.5t-398 -149.5q-263 0 -392.5 150t-129.5 423v809zM487 1905h183l184 -369h-41z" />
<glyph unicode="&#xda;" horiz-adv-x="1556" d="M61 1372v62h533v-62l-184 -10v-789q0 -512 399 -512q206 0 313 132t107 380v789l-185 10v62h451v-62l-184 -10v-809q0 -274 -145 -423.5t-398 -149.5q-263 0 -392.5 150t-129.5 423v809zM797 1536l184 369h182l-325 -369h-41z" />
<glyph unicode="&#xdb;" horiz-adv-x="1556" d="M61 1372v62h533v-62l-184 -10v-789q0 -512 399 -512q206 0 313 132t107 380v789l-185 10v62h451v-62l-184 -10v-809q0 -274 -145 -423.5t-398 -149.5q-263 0 -392.5 150t-129.5 423v809zM555 1536l256 369h41l256 -369h-41l-236 195l-235 -195h-41z" />
<glyph unicode="&#xdc;" horiz-adv-x="1556" d="M61 1372v62h533v-62l-184 -10v-789q0 -512 399 -512q206 0 313 132t107 380v789l-185 10v62h451v-62l-184 -10v-809q0 -274 -145 -423.5t-398 -149.5q-263 0 -392.5 150t-129.5 423v809zM526 1669q0 49 31.5 80t77.5 31t77 -31t31 -80q0 -47 -31 -76.5t-77 -29.5 t-77.5 29.5t-31.5 76.5zM924 1669q0 49 31 80t77 31t77.5 -31t31.5 -80q0 -47 -31.5 -76.5t-77.5 -29.5t-77 29.5t-31 76.5z" />
<glyph unicode="&#xdd;" horiz-adv-x="1392" d="M20 1372v62h512v-62l-153 -10l358 -727h21l340 727l-156 10v62h430v-62l-174 -10l-410 -797v-493l185 -11v-61h-533v61l185 11v405l-461 885zM737 1536l185 369h182l-326 -369h-41z" />
<glyph unicode="&#xde;" horiz-adv-x="1249" d="M82 0v61l184 11v1290l-184 10v62h532v-62l-184 -10v-236h266q224 0 347.5 -107.5t123.5 -281.5q0 -64 -18 -123.5t-60.5 -116t-106.5 -98t-163.5 -67t-224.5 -25.5h-164v-235l184 -11v-61h-532zM430 379h164q89 0 159 18t114.5 49t73 74.5t40.5 92t12 104.5q0 66 -16 121 t-52.5 104t-105 79t-164.5 34h-225v-676z" />
<glyph unicode="&#xdf;" horiz-adv-x="1269" d="M61 0v61l164 11v870h-164v72l164 10q0 89 16.5 161.5t43 120.5t63.5 84t73.5 55.5t79 31t73 15t61.5 3.5q165 0 251.5 -65t86.5 -170q0 -48 -16.5 -89t-41.5 -68t-53.5 -55.5t-53.5 -52t-41.5 -56t-16.5 -69.5q0 -67 84 -127l200 -145q73 -52 111 -121t41 -136 t-21.5 -133t-70.5 -116t-112.5 -81t-141.5 -31q-166 0 -308 71l-10 244h62l28 -143q92 -121 228 -121q87 0 142 49.5t67 128.5q11 75 -26 136t-124 126l-170 129q-28 21 -48 44t-32 43t-15.5 45t-4 44t9 45.5t16.5 44t24.5 47t28 46t31.5 47.5q31 47 50 105t20 116.5 t-16 107t-63 79t-116 30.5q-128 0 -176.5 -103t-48.5 -317v-1024h-328z" />
<glyph unicode="&#xe0;" horiz-adv-x="1044" d="M102 195q0 177 308 286l266 92v226q0 67 -55.5 115.5t-169.5 48.5q-88 0 -154 -31v-21q45 -20 55.5 -67t-19 -87t-87.5 -40q-43 0 -73 29.5t-30 72.5q0 81 114.5 153t274.5 72q143 0 225.5 -60t82.5 -185v-717l184 -21v-61l-307 -20h-41v112h-21q-94 -60 -162.5 -86 t-154.5 -26q-112 0 -174 60t-62 155zM197 1495h182l184 -369h-41zM266 236q0 -64 47 -99t107 -35q135 0 256 52v358l-205 -82q-115 -45 -160 -88.5t-45 -105.5z" />
<glyph unicode="&#xe1;" horiz-adv-x="1044" d="M102 195q0 177 308 286l266 92v226q0 67 -55.5 115.5t-169.5 48.5q-88 0 -154 -31v-21q45 -20 55.5 -67t-19 -87t-87.5 -40q-43 0 -73 29.5t-30 72.5q0 81 114.5 153t274.5 72q143 0 225.5 -60t82.5 -185v-717l184 -21v-61l-307 -20h-41v112h-21q-94 -60 -162.5 -86 t-154.5 -26q-112 0 -174 60t-62 155zM266 236q0 -64 47 -99t107 -35q135 0 256 52v358l-205 -82q-115 -45 -160 -88.5t-45 -105.5zM463 1126l184 369h182l-325 -369h-41z" />
<glyph unicode="&#xe2;" horiz-adv-x="1044" d="M102 195q0 177 308 286l266 92v226q0 67 -55.5 115.5t-169.5 48.5q-88 0 -154 -31v-21q45 -20 55.5 -67t-19 -87t-87.5 -40q-43 0 -73 29.5t-30 72.5q0 81 114.5 153t274.5 72q143 0 225.5 -60t82.5 -185v-717l184 -21v-61l-307 -20h-41v112h-21q-94 -60 -162.5 -86 t-154.5 -26q-112 0 -174 60t-62 155zM244 1126l256 369h41l256 -369h-41l-236 195l-235 -195h-41zM266 236q0 -64 47 -99t107 -35q135 0 256 52v358l-205 -82q-115 -45 -160 -88.5t-45 -105.5z" />
<glyph unicode="&#xe3;" horiz-adv-x="1044" d="M102 195q0 177 308 286l266 92v226q0 67 -55.5 115.5t-169.5 48.5q-88 0 -154 -31v-21q45 -20 55.5 -67t-19 -87t-87.5 -40q-43 0 -73 29.5t-30 72.5q0 81 114.5 153t274.5 72q143 0 225.5 -60t82.5 -185v-717l184 -21v-61l-307 -20h-41v112h-21q-94 -60 -162.5 -86 t-154.5 -26q-112 0 -174 60t-62 155zM168 1188q18 36 29.5 58.5t34 58t41.5 56t46 36.5t54 16q41 0 164 -41t163 -41q57 0 88 15t66 67l31 -20l-28.5 -55.5t-31 -52.5t-39 -51t-43.5 -31.5t-53 -14.5q-48 0 -169 41t-169 41q-53 0 -81 -20.5t-72 -82.5zM266 236 q0 -64 47 -99t107 -35q135 0 256 52v358l-205 -82q-115 -45 -160 -88.5t-45 -105.5z" />
<glyph unicode="&#xe4;" horiz-adv-x="1044" d="M102 195q0 177 308 286l266 92v226q0 67 -55.5 115.5t-169.5 48.5q-88 0 -154 -31v-21q45 -20 55.5 -67t-19 -87t-87.5 -40q-43 0 -73 29.5t-30 72.5q0 81 114.5 153t274.5 72q143 0 225.5 -60t82.5 -185v-717l184 -21v-61l-307 -20h-41v112h-21q-94 -60 -162.5 -86 t-154.5 -26q-112 0 -174 60t-62 155zM205 1260q0 49 31 79.5t77 30.5q47 0 78 -30.5t31 -79.5q0 -47 -31.5 -77t-77.5 -30t-77 30t-31 77zM266 236q0 -64 47 -99t107 -35q135 0 256 52v358l-205 -82q-115 -45 -160 -88.5t-45 -105.5zM602 1260q0 49 31 79.5t78 30.5 q46 0 77 -30.5t31 -79.5q0 -47 -31 -77t-77 -30t-77.5 30t-31.5 77z" />
<glyph unicode="&#xe5;" horiz-adv-x="1044" d="M102 195q0 177 308 286l266 92v226q0 67 -55.5 115.5t-169.5 48.5q-88 0 -154 -31v-21q45 -20 55.5 -67t-19 -87t-87.5 -40q-43 0 -73 29.5t-30 72.5q0 81 114.5 153t274.5 72q143 0 225.5 -60t82.5 -185v-717l184 -21v-61l-307 -20h-41v112h-21q-94 -60 -162.5 -86 t-154.5 -26q-112 0 -174 60t-62 155zM266 236q0 -64 47 -99t107 -35q135 0 256 52v358l-205 -82q-115 -45 -160 -88.5t-45 -105.5zM326 1305q0 75 51.5 127.5t126.5 52.5t127.5 -52.5t52.5 -127.5t-52.5 -127t-127.5 -52t-126.5 52t-51.5 127zM387 1305q0 -53 31.5 -90 t85.5 -37q56 0 87.5 37t31.5 90q0 54 -31.5 91.5t-87.5 37.5q-55 0 -86 -37.5t-31 -91.5z" />
<glyph unicode="&#xe6;" horiz-adv-x="1644" d="M102 195q0 177 308 286l266 92v226q0 67 -55.5 115.5t-169.5 48.5q-88 0 -154 -31v-21q45 -20 55.5 -67t-19 -87t-87.5 -40q-43 0 -73 29.5t-30 72.5q0 81 114.5 153t274.5 72q232 0 291 -149q72 72 166.5 110.5t194.5 38.5q61 0 118 -16.5t109.5 -52t87 -91t48.5 -133 t-5 -178.5h-700q-5 -204 95 -332t277 -128q99 0 184.5 48.5t123.5 125.5h41q-32 -128 -140 -217.5t-249 -89.5q-244 0 -381 178q-244 -178 -455 -178q-112 0 -174 60t-62 155zM266 236q0 -66 47.5 -100t126.5 -34q167 0 322 99q-86 136 -86 311l-205 -82 q-115 -45 -160 -88.5t-45 -105.5zM846 635l512 31q36 152 -20 234.5t-164 82.5q-132 0 -222.5 -97t-105.5 -251z" />
<glyph unicode="&#xe7;" horiz-adv-x="1044" d="M82 512q0 101 28.5 188.5t77.5 149.5t113 106.5t136 66t147 21.5q91 0 163 -22t113 -57.5t61.5 -75.5t20.5 -80q0 -49 -29.5 -81t-72.5 -32q-58 0 -88 40t-19.5 87.5t55.5 67.5v20q-72 72 -215 72q-152 0 -241.5 -113.5t-89.5 -294.5q0 -222 101.5 -342t270.5 -120 q99 0 184.5 48.5t123.5 125.5h41q-32 -125 -137 -214t-242 -93v-103q69 -12 126.5 -53.5t57.5 -114.5q0 -75 -55 -127.5t-146 -52.5q-70 0 -153 25l12 63q66 -16 109 -16q57 0 86.5 32t29.5 80q0 47 -32.5 79t-96.5 44l4 146q-139 11 -241.5 88.5t-152.5 192t-50 249.5z" />
<glyph unicode="&#xe8;" horiz-adv-x="1044" d="M82 512q0 123 42.5 225t113 168t160 102.5t186.5 36.5q61 0 118 -16.5t109.5 -52t87 -91t48.5 -133t-5 -178.5h-700q-5 -204 95 -332t277 -128q99 0 184.5 48.5t123.5 125.5h41q-32 -128 -140 -217.5t-250 -89.5q-115 0 -210 44t-155 118.5t-93 169.5t-33 200zM246 635 l512 31q36 152 -20.5 234.5t-164.5 82.5q-131 0 -221.5 -97t-105.5 -251zM260 1495h182l185 -369h-41z" />
<glyph unicode="&#xe9;" horiz-adv-x="1044" d="M82 512q0 123 42.5 225t113 168t160 102.5t186.5 36.5q61 0 118 -16.5t109.5 -52t87 -91t48.5 -133t-5 -178.5h-700q-5 -204 95 -332t277 -128q99 0 184.5 48.5t123.5 125.5h41q-32 -128 -140 -217.5t-250 -89.5q-115 0 -210 44t-155 118.5t-93 169.5t-33 200zM246 635 l512 31q36 152 -20.5 234.5t-164.5 82.5q-131 0 -221.5 -97t-105.5 -251zM485 1126l185 369h182l-326 -369h-41z" />
<glyph unicode="&#xea;" horiz-adv-x="1044" d="M82 512q0 123 42.5 225t113 168t160 102.5t186.5 36.5q61 0 118 -16.5t109.5 -52t87 -91t48.5 -133t-5 -178.5h-700q-5 -204 95 -332t277 -128q99 0 184.5 48.5t123.5 125.5h41q-32 -128 -140 -217.5t-250 -89.5q-115 0 -210 44t-155 118.5t-93 169.5t-33 200zM246 635 l512 31q36 152 -20.5 234.5t-164.5 82.5q-131 0 -221.5 -97t-105.5 -251zM285 1126l256 369h41l256 -369h-41l-236 195l-235 -195h-41z" />
<glyph unicode="&#xeb;" horiz-adv-x="1044" d="M82 512q0 123 42.5 225t113 168t160 102.5t186.5 36.5q61 0 118 -16.5t109.5 -52t87 -91t48.5 -133t-5 -178.5h-700q-5 -204 95 -332t277 -128q99 0 184.5 48.5t123.5 125.5h41q-32 -128 -140 -217.5t-250 -89.5q-115 0 -210 44t-155 118.5t-93 169.5t-33 200zM236 1260 q0 49 31 79.5t77 30.5q47 0 78 -30.5t31 -79.5q0 -47 -31.5 -77t-77.5 -30t-77 30t-31 77zM246 635l512 31q36 152 -20.5 234.5t-164.5 82.5q-131 0 -221.5 -97t-105.5 -251zM633 1260q0 49 31 79.5t77 30.5q47 0 78 -30.5t31 -79.5q0 -47 -31.5 -77t-77.5 -30t-77 30 t-31 77z" />
<glyph unicode="&#xec;" horiz-adv-x="614" d="M0 1495h182l185 -369h-41zM61 0v61l185 11v747l-164 82v41l287 102h41v-972l184 -11v-61h-533z" />
<glyph unicode="&#xed;" horiz-adv-x="614" d="M61 0v61l185 11v747l-164 82v41l287 102h41v-972l184 -11v-61h-533zM270 1126l185 369h182l-326 -369h-41z" />
<glyph unicode="&#xee;" horiz-adv-x="614" d="M51 1126l256 369h41l256 -369h-41l-235 195l-236 -195h-41zM61 0v61l185 11v747l-164 82v41l287 102h41v-972l184 -11v-61h-533z" />
<glyph unicode="&#xef;" horiz-adv-x="614" d="M20 1260q0 49 31 79.5t78 30.5t78 -30.5t31 -79.5q0 -47 -31.5 -77t-77.5 -30t-77.5 30t-31.5 77zM63 0v61l185 11v747l-164 82v41l287 102h41v-972l184 -11v-61h-533zM418 1260q0 49 31 79.5t77 30.5q47 0 78 -30.5t31 -79.5q0 -47 -31.5 -77t-77.5 -30t-77 30t-31 77z " />
<glyph unicode="&#xf0;" horiz-adv-x="1075" d="M82 453q0 179 108 303.5t269 124.5q179 0 334 -129l16 6q-61 303 -229 479l-203 -133l-35 63l182 121q-115 98 -268 144l14 63q190 -40 338 -149l228 149l36 -63l-204 -136q154 -134 239.5 -330.5t85.5 -418.5q0 -117 -28.5 -218.5t-84 -180t-144 -123.5t-201.5 -45 q-190 0 -321.5 131t-131.5 342zM266 430q0 -179 72.5 -277t193.5 -98q99 0 169.5 80.5t99 219t8.5 304.5q-53 60 -123.5 96t-142.5 36q-124 0 -200.5 -100t-76.5 -261z" />
<glyph unicode="&#xf1;" horiz-adv-x="1269" d="M61 0v61l185 11v747l-164 82v41l287 102h41v-184h20q94 94 182.5 139t196.5 45q113 0 184.5 -74.5t71.5 -232.5v-665l184 -11v-61h-491v61l143 11v665q0 87 -38.5 136t-114.5 49q-85 0 -162 -30t-176 -114v-706l184 -11v-61h-533zM291 1188q18 36 29.5 58.5t34 58 t41.5 56t46 36.5t54 16q41 0 164 -41t163 -41q57 0 88 15t66 67l31 -20l-28.5 -55.5t-31 -52.5t-39 -51t-43.5 -31.5t-53 -14.5q-48 0 -169 41t-169 41q-53 0 -81 -20.5t-72 -82.5z" />
<glyph unicode="&#xf2;" d="M82 512q0 146 62 267.5t175 193t254 71.5t254 -71.5t175.5 -193t62.5 -267.5t-62.5 -267.5t-175.5 -193t-254 -71.5t-254 71.5t-175 193t-62 267.5zM266 512q0 -226 83 -348.5t224 -122.5t224.5 122.5t83.5 348.5t-83.5 348.5t-224.5 122.5t-224 -122.5t-83 -348.5z M270 1495h183l184 -369h-41z" />
<glyph unicode="&#xf3;" d="M82 512q0 146 62 267.5t175 193t254 71.5t254 -71.5t175.5 -193t62.5 -267.5t-62.5 -267.5t-175.5 -193t-254 -71.5t-254 71.5t-175 193t-62 267.5zM266 512q0 -226 83 -348.5t224 -122.5t224.5 122.5t83.5 348.5t-83.5 348.5t-224.5 122.5t-224 -122.5t-83 -348.5z M516 1126l184 369h183l-326 -369h-41z" />
<glyph unicode="&#xf4;" d="M82 512q0 146 62 267.5t175 193t254 71.5t254 -71.5t175.5 -193t62.5 -267.5t-62.5 -267.5t-175.5 -193t-254 -71.5t-254 71.5t-175 193t-62 267.5zM266 512q0 -226 83 -348.5t224 -122.5t224.5 122.5t83.5 348.5t-83.5 348.5t-224.5 122.5t-224 -122.5t-83 -348.5z M301 1126l256 369h41l256 -369h-41l-235 195l-236 -195h-41z" />
<glyph unicode="&#xf5;" d="M82 512q0 146 62 267.5t175 193t254 71.5t254 -71.5t175.5 -193t62.5 -267.5t-62.5 -267.5t-175.5 -193t-254 -71.5t-254 71.5t-175 193t-62 267.5zM217 1188q18 36 29.5 58.5t34 58t41.5 56t46 36.5t54 16q41 0 164.5 -41t163.5 -41q57 0 87.5 15t65.5 67l31 -20 l-28.5 -55.5t-31 -52.5t-39 -51t-43.5 -31.5t-53 -14.5q-48 0 -169 41t-169 41q-53 0 -81 -20.5t-72 -82.5zM266 512q0 -226 83 -348.5t224 -122.5t224.5 122.5t83.5 348.5t-83.5 348.5t-224.5 122.5t-224 -122.5t-83 -348.5z" />
<glyph unicode="&#xf6;" d="M82 512q0 146 62 267.5t175 193t254 71.5t254 -71.5t175.5 -193t62.5 -267.5t-62.5 -267.5t-175.5 -193t-254 -71.5t-254 71.5t-175 193t-62 267.5zM266 512q0 -226 83 -348.5t224 -122.5t224.5 122.5t83.5 348.5t-83.5 348.5t-224.5 122.5t-224 -122.5t-83 -348.5z M276 1260q0 49 31 79.5t78 30.5t78 -30.5t31 -79.5q0 -47 -31.5 -77t-77.5 -30t-77.5 30t-31.5 77zM674 1260q0 49 31 79.5t77 30.5q47 0 78 -30.5t31 -79.5q0 -47 -31.5 -77t-77.5 -30t-77 30t-31 77z" />
<glyph unicode="&#xf7;" d="M205 512v72h737v-72h-737zM485 248q0 42 28.5 71t70.5 29q41 0 69.5 -28.5t28.5 -71.5q0 -41 -28.5 -68.5t-69.5 -27.5q-42 0 -70.5 27.5t-28.5 68.5zM485 844q0 42 28.5 71t70.5 29q41 0 69.5 -28.5t28.5 -71.5q0 -41 -28.5 -68.5t-69.5 -27.5q-42 0 -70.5 27.5 t-28.5 68.5z" />
<glyph unicode="&#xf8;" d="M80 31l115 125q-119 151 -113 356q2 146 66.5 267.5t178.5 193t255 71.5q185 0 317 -122l107 110l51 -51l-107 -113q118 -150 115 -356q-3 -146 -67.5 -267.5t-179 -193t-255.5 -71.5q-188 0 -317 120l-111 -120zM266 512q0 -149 33 -244l518 563q-82 152 -244 152 q-144 0 -225.5 -122t-81.5 -349zM330 193q81 -152 243 -152q144 0 226 122t82 349q0 132 -33 244z" />
<glyph unicode="&#xf9;" horiz-adv-x="1208" d="M20 963v61l308 20h41v-757q0 -87 38.5 -136t114.5 -49q82 0 149 29t169 115v706l-185 11v61l308 20h41v-962l184 -21v-61l-307 -20h-41v184h-21q-89 -97 -169.5 -140.5t-188.5 -43.5q-113 0 -184.5 74.5t-71.5 232.5v665zM254 1495h182l185 -369h-41z" />
<glyph unicode="&#xfa;" horiz-adv-x="1208" d="M20 963v61l308 20h41v-757q0 -87 38.5 -136t114.5 -49q82 0 149 29t169 115v706l-185 11v61l308 20h41v-962l184 -21v-61l-307 -20h-41v184h-21q-89 -97 -169.5 -140.5t-188.5 -43.5q-113 0 -184.5 74.5t-71.5 232.5v665zM512 1126l184 369h183l-326 -369h-41z" />
<glyph unicode="&#xfb;" horiz-adv-x="1208" d="M20 963v61l308 20h41v-757q0 -87 38.5 -136t114.5 -49q82 0 149 29t169 115v706l-185 11v61l308 20h41v-962l184 -21v-61l-307 -20h-41v184h-21q-89 -97 -169.5 -140.5t-188.5 -43.5q-113 0 -184.5 74.5t-71.5 232.5v665zM289 1126l256 369h41l256 -369h-41l-236 195 l-235 -195h-41z" />
<glyph unicode="&#xfc;" horiz-adv-x="1208" d="M20 963v61l308 20h41v-757q0 -87 38.5 -136t114.5 -49q82 0 149 29t169 115v706l-185 11v61l308 20h41v-962l184 -21v-61l-307 -20h-41v184h-21q-89 -97 -169.5 -140.5t-188.5 -43.5q-113 0 -184.5 74.5t-71.5 232.5v665zM287 1260q0 49 31 79.5t77 30.5q47 0 78 -30.5 t31 -79.5q0 -47 -31.5 -77t-77.5 -30t-77 30t-31 77zM684 1260q0 49 31 79.5t78 30.5q46 0 77 -30.5t31 -79.5q0 -47 -31 -77t-77 -30t-77.5 30t-31.5 77z" />
<glyph unicode="&#xfd;" horiz-adv-x="1187" d="M20 963v61h533v-61l-184 -11l307 -757h20l242 757l-139 11v61h368v-61l-127 -11l-401 -1054q-15 -39 -26 -66t-31.5 -69t-39 -71t-46 -62t-56 -53.5t-66 -34t-77.5 -13.5q-66 0 -99.5 28.5t-33.5 73.5q0 59 48.5 86.5t97 -1.5t48.5 -105h21q29 0 61 36.5t60.5 98 t50.5 120.5t43 124l-420 962zM616 1126l185 369h182l-326 -369h-41z" />
<glyph unicode="&#xfe;" horiz-adv-x="1208" d="M20 -389l185 10v1649l-164 82v41l287 102h41v-573h20q139 122 307 122q196 0 313 -149t117 -383q0 -229 -135 -380.5t-336 -151.5q-73 0 -134.5 16t-131.5 65h-20v-440l184 -10v-62h-533v62zM369 147q61 -41 119.5 -58t136.5 -17q138 0 227.5 110.5t89.5 329.5 t-89.5 329.5t-227.5 110.5q-122 0 -256 -116v-689z" />
<glyph unicode="&#xff;" horiz-adv-x="1187" d="M20 963v61h533v-61l-184 -11l307 -757h20l242 757l-139 11v61h368v-61l-127 -11l-401 -1054q-15 -39 -26 -66t-31.5 -69t-39 -71t-46 -62t-56 -53.5t-66 -34t-77.5 -13.5q-66 0 -99.5 28.5t-33.5 73.5q0 59 48.5 86.5t97 -1.5t48.5 -105h21q29 0 61 36.5t60.5 98 t50.5 120.5t43 124l-420 962zM373 1260q0 49 31 79.5t77 30.5q47 0 78 -30.5t31 -79.5q0 -47 -31.5 -77t-77.5 -30t-77 30t-31 77zM770 1260q0 49 31 79.5t78 30.5q46 0 77 -30.5t31 -79.5q0 -47 -31 -77t-77 -30t-77.5 30t-31.5 77z" />
<glyph unicode="&#x152;" horiz-adv-x="1986" d="M102 717q0 158 55 296t149 234.5t222 151.5t271 55q47 0 111.5 -6t93.5 -14h860l10 -328h-72l-30 235l-584 21v-604l399 10l10 195h72v-482h-72l-10 195l-399 10v-614l604 20l41 236h72l-21 -328h-880q-29 -8 -93.5 -14t-111.5 -6q-143 0 -271 55t-222 151.5t-149 234.5 t-55 296zM287 717q0 -191 68.5 -344t185.5 -237.5t258 -84.5q120 0 172.5 65.5t52.5 190.5v819q0 125 -52.5 190.5t-172.5 65.5q-216 0 -364 -188.5t-148 -476.5z" />
<glyph unicode="&#x153;" horiz-adv-x="1869" d="M82 512q0 146 62 267.5t175 193t254 71.5q131 0 238.5 -63.5t173.5 -171.5q68 112 181.5 173.5t242.5 61.5q61 0 118 -16.5t109.5 -52t87 -91t48.5 -133t-5 -178.5h-700q-5 -203 95.5 -331.5t277.5 -128.5q99 0 183.5 48.5t123.5 125.5h41q-32 -128 -140 -217.5 t-249 -89.5t-247.5 62.5t-168.5 170.5q-64 -108 -171.5 -170.5t-238.5 -62.5q-141 0 -254 71.5t-175 193t-62 267.5zM266 512q0 -226 83 -348.5t224 -122.5t224.5 122.5t83.5 348.5t-83.5 348.5t-224.5 122.5t-224 -122.5t-83 -348.5zM1071 635l512 31q36 152 -20 234.5 t-164 82.5q-132 0 -222.5 -97t-105.5 -251z" />
<glyph unicode="&#x178;" horiz-adv-x="1392" d="M20 1372v62h512v-62l-153 -10l358 -727h21l340 727l-156 10v62h430v-62l-174 -10l-410 -797v-493l185 -11v-61h-533v61l185 11v405l-461 885zM440 1669q0 49 31.5 80t77.5 31t77 -31t31 -80q0 -47 -31 -76.5t-77 -29.5t-77.5 29.5t-31.5 76.5zM838 1669q0 49 31 80t77 31 t77.5 -31t31.5 -80q0 -47 -31.5 -76.5t-77.5 -29.5t-77 29.5t-31 76.5z" />
<glyph unicode="&#x2c6;" horiz-adv-x="962" d="M205 1126l256 369h41l256 -369h-41l-236 195l-235 -195h-41z" />
<glyph unicode="&#x2dc;" horiz-adv-x="1126" d="M205 1188q18 36 29.5 58.5t34 58t41.5 56t46 36.5t54 16q41 0 164 -41t163 -41q57 0 88 15t66 67l31 -20l-28.5 -55.5t-31 -52.5t-39 -51t-43.5 -31.5t-53 -14.5q-48 0 -169 41t-169 41q-53 0 -81 -20.5t-72 -82.5z" />
<glyph unicode="&#x2000;" horiz-adv-x="952" />
<glyph unicode="&#x2001;" horiz-adv-x="1905" />
<glyph unicode="&#x2002;" horiz-adv-x="952" />
<glyph unicode="&#x2003;" horiz-adv-x="1905" />
<glyph unicode="&#x2004;" horiz-adv-x="635" />
<glyph unicode="&#x2005;" horiz-adv-x="476" />
<glyph unicode="&#x2006;" horiz-adv-x="317" />
<glyph unicode="&#x2007;" horiz-adv-x="317" />
<glyph unicode="&#x2008;" horiz-adv-x="238" />
<glyph unicode="&#x2009;" horiz-adv-x="381" />
<glyph unicode="&#x200a;" horiz-adv-x="105" />
<glyph unicode="&#x2010;" d="M205 512v72h737v-72h-737z" />
<glyph unicode="&#x2011;" d="M205 512v72h737v-72h-737z" />
<glyph unicode="&#x2012;" d="M205 512v72h737v-72h-737z" />
<glyph unicode="&#x2013;" horiz-adv-x="1249" d="M205 512v72h839v-72h-839z" />
<glyph unicode="&#x2014;" horiz-adv-x="1843" d="M205 512v72h1433v-72h-1433z" />
<glyph unicode="&#x2018;" horiz-adv-x="686" d="M205 1118q0 128 81.5 229t174.5 140l20 -41q-46 -28 -82.5 -70t-52.5 -86t-12 -83t41.5 -64t105.5 -25v-205q-64 -9 -114.5 2t-80 33t-48.5 53.5t-26 60t-7 56.5z" />
<glyph unicode="&#x2019;" horiz-adv-x="686" d="M205 922q46 28 82.5 70t52.5 86t12 83t-41.5 63.5t-105.5 24.5v205q64 9 114.5 -2t80 -33t48.5 -53.5t26 -60t7 -56.5q0 -67 -25 -130t-64.5 -109t-82.5 -79t-84 -50z" />
<glyph unicode="&#x201a;" horiz-adv-x="686" d="M205 41v205q64 9 114.5 -2t80 -33t48.5 -53.5t26 -60t7 -56.5q0 -128 -81.5 -229t-174.5 -140l-20 41q46 28 82.5 70t52.5 86t12 83t-41.5 64t-105.5 25z" />
<glyph unicode="&#x201c;" horiz-adv-x="1136" d="M205 1118q0 128 81.5 229t174.5 140l20 -41q-46 -28 -82.5 -70t-52.5 -86t-12 -83t41.5 -64t105.5 -25v-205q-64 -9 -114.5 2t-80 33t-48.5 53.5t-26 60t-7 56.5zM655 1118q0 128 81.5 229t174.5 140l21 -41q-46 -28 -82.5 -70t-52.5 -86t-12 -83t41.5 -64t105.5 -25 v-205q-64 -9 -115 2t-80.5 33t-48.5 53.5t-26 60t-7 56.5z" />
<glyph unicode="&#x201d;" horiz-adv-x="1136" d="M205 922q46 28 82.5 70t52.5 86t12 83t-41.5 63.5t-105.5 24.5v205q64 9 114.5 -2t80 -33t48.5 -53.5t26 -60t7 -56.5q0 -67 -25 -130t-64.5 -109t-82.5 -79t-84 -50zM655 922q46 28 82.5 70t52.5 86t12 83t-41.5 63.5t-105.5 24.5v205q64 9 115 -2t80.5 -33t48.5 -53.5 t26 -60t7 -56.5q0 -67 -25 -130t-64.5 -109t-82.5 -79t-84 -50z" />
<glyph unicode="&#x201e;" horiz-adv-x="1136" d="M205 41v205q64 9 114.5 -2t80 -33t48.5 -53.5t26 -60t7 -56.5q0 -128 -81.5 -229t-174.5 -140l-20 41q46 28 82.5 70t52.5 86t12 83t-41.5 64t-105.5 25zM655 41v205q64 9 115 -2t80.5 -33t48.5 -53.5t26 -60t7 -56.5q0 -128 -81.5 -229t-174.5 -140l-21 41 q46 28 82.5 70t52.5 86t12 83t-41.5 64t-105.5 25z" />
<glyph unicode="&#x2022;" horiz-adv-x="813" d="M205 475q0 85 58 144t143 59t143.5 -59t58.5 -144t-58.5 -143t-143.5 -58t-143 58t-58 143z" />
<glyph unicode="&#x2026;" horiz-adv-x="1638" d="M205 102q0 51 36 87t87 36t87 -36t36 -87t-36 -86.5t-87 -35.5t-87 35.5t-36 86.5zM696 102q0 51 36 87t87 36t87 -36t36 -87t-36 -86.5t-87 -35.5t-87 35.5t-36 86.5zM1188 102q0 51 36 87t87 36t87 -36t36 -87t-36 -86.5t-87 -35.5t-87 35.5t-36 86.5z" />
<glyph unicode="&#x202f;" horiz-adv-x="381" />
<glyph unicode="&#x2039;" horiz-adv-x="880" d="M205 528v41l471 379v-82l-254 -315l254 -320v-81z" />
<glyph unicode="&#x203a;" horiz-adv-x="880" d="M205 150v81l254 320l-254 315v82l471 -379v-41z" />
<glyph unicode="&#x205f;" horiz-adv-x="476" />
<glyph unicode="&#x20ac;" horiz-adv-x="1484" d="M123 553v72h168q-4 58 -4 92q0 28 4 82h-168v71h176q46 262 228.5 423t435.5 161q91 0 169.5 -25.5t127 -64.5t75.5 -83t27 -83q0 -49 -29.5 -81t-72.5 -32q-58 0 -88 40t-19.5 87.5t55.5 67.5v20q-38 38 -103.5 60t-141.5 22q-183 0 -315 -141t-167 -371h338v-71h-346 q-2 -27 -2 -82q0 -63 4 -92h344v-72h-336q37 -227 167.5 -364.5t312.5 -137.5q76 0 141.5 22t103.5 60v21q-45 20 -55.5 67t19.5 87t88 40q43 0 72.5 -31.5t29.5 -80.5q0 -39 -27 -83t-75.5 -83t-127 -64.5t-169.5 -25.5q-250 0 -432.5 158t-229.5 415h-178z" />
<glyph unicode="&#x2122;" horiz-adv-x="1730" d="M123 1270l4 164h545l4 -164h-35l-16 121l-185 6v-645l92 -4v-31h-266v31l92 4v645l-184 -6l-16 -121h-35zM788 717v31l93 4v647l-93 4v31h189l227 -580h10l216 580h178v-31l-92 -4v-647l92 -4v-31h-267v31l93 4v569h-11l-219 -610h-43l-235 610h-11l7 -569l92 -4v-31 h-226z" />
<glyph unicode="&#x25fc;" horiz-adv-x="1024" d="M0 0v1024h1024v-1024h-1024z" />
</font>
</defs>
</svg>
